<?xml version="1.0" encoding="UTF-8" standalone="no"?>
<svg width="94px" height="94px" viewBox="0 0 94 94" version="1.1" xmlns="http://www.w3.org/2000/svg" xmlns:xlink="http://www.w3.org/1999/xlink">
    <!-- Generator: Sketch 39.1 (31720) - http://www.bohemiancoding.com/sketch -->
    <title>Shape</title>
    <desc>Created with Sketch.</desc>
    <defs></defs>
    <g id="Page-1" stroke="none" stroke-width="1" fill="none" fill-rule="evenodd">
        <g id="noun_244377_cc" fill="#78D36E">
            <path d="M47,0 C21,0 0,21 0,47 C0,73 21,94 47,94 C73,94 94,73 94,47 C94,21 73,0 47,0 L47,0 Z M71.9,35.6 L46.9,63.8 C46.1,64.7 45,65.1 43.9,65.1 C43,65.1 42.1,64.8 41.4,64.2 L25.7,51.7 C24,50.3 23.7,47.8 25.1,46.1 C26.5,44.4 29,44.1 30.7,45.5 L43.4,55.7 L65.9,30.3 C67.4,28.6 69.9,28.5 71.5,30 C73.2,31.4 73.4,33.9 71.9,35.6 L71.9,35.6 Z" id="Shape"></path>
        </g>
    </g>
</svg>