<?xml version="1.0" encoding="UTF-8" standalone="no"?>
<svg width="92px" height="63px" viewBox="0 0 92 63" version="1.1" xmlns="http://www.w3.org/2000/svg" xmlns:xlink="http://www.w3.org/1999/xlink">
    <!-- Generator: Sketch 39.1 (31720) - http://www.bohemiancoding.com/sketch -->
    <title>noun_197925_cc</title>
    <desc>Created with Sketch.</desc>
    <defs></defs>
    <g id="Page-1" stroke="none" stroke-width="1" fill="none" fill-rule="evenodd">
        <g id="noun_197925_cc" fill="#454553">
            <g id="Group">
                <g transform="translate(13.000000, 0.000000)" id="Shape">
                    <path d="M20.723,2.764 C20.335,2.67 19.959,2.523 19.61,2.322 L16.674,0.633 C16.674,0.633 11.458,-0.169 2.773,4.435 C2.212,4.733 1.765,5.209 1.513,5.792 C0.904,7.198 0.381,8.243 0.381,8.243 L0.404,8.319 C5.801,5.355 10.898,4.35 13.494,4.014 C14.583,3.873 15.831,4.284 16.563,5.103 L18.286,7.031 L20.723,2.764 L20.723,2.764 Z"></path>
                    <path d="M44.353,2.863 C44.221,2.876 44.087,2.884 43.954,2.884 L33.075,2.884 L32.914,2.884 L21.713,2.884 C21.582,2.884 21.452,2.876 21.323,2.864 L18.686,7.48 L23.142,12.468 C23.818,13.225 24.785,13.657 25.799,13.657 L32.673,13.657 L32.834,13.657 L39.868,13.657 C40.883,13.657 41.849,13.224 42.525,12.468 L46.989,7.472 L44.353,2.863 L44.353,2.863 Z M32.833,12.344 C30.569,12.344 28.733,10.508 28.733,8.244 C28.733,5.98 30.569,4.144 32.833,4.144 C35.097,4.144 36.933,5.98 36.933,8.244 C36.933,10.508 35.098,12.344 32.833,12.344 L32.833,12.344 Z"></path>
                    <path d="M65.286,8.244 C65.286,8.244 64.763,7.198 64.154,5.793 C63.901,5.21 63.455,4.733 62.894,4.436 C54.209,-0.169 48.993,0.634 48.993,0.634 L46.057,2.323 C45.715,2.52 45.348,2.665 44.968,2.759 L47.401,7.012 L49.106,5.104 C49.837,4.285 51.086,3.874 52.175,4.015 C54.785,4.353 59.923,5.366 65.352,8.367 L65.286,8.244 L65.286,8.244 Z"></path>
                </g>
                <circle id="Oval" cx="22.545" cy="19.687" r="4.824"></circle>
                <circle id="Oval" cx="57.654" cy="33.705" r="4.824"></circle>
                <path d="M64.519,18.073 C65.011,18.506 65.321,19.141 65.321,19.847 C65.321,21.152 64.263,22.211 62.957,22.211 C61.652,22.211 60.593,21.153 60.593,19.847 C60.593,18.541 61.651,17.483 62.957,17.483 C63.556,17.484 64.103,17.706 64.519,18.073" id="Shape"></path>
                <path d="M77.13,18.073 C77.622,18.506 77.932,19.141 77.932,19.847 C77.932,21.152 76.874,22.211 75.568,22.211 C74.263,22.211 73.204,21.153 73.204,19.847 C73.204,18.541 74.262,17.483 75.568,17.483 C76.167,17.484 76.714,17.706 77.13,18.073" id="Shape"></path>
                <path d="M70.913,12.017 C71.405,12.45 71.715,13.085 71.715,13.791 C71.715,15.096 70.657,16.155 69.351,16.155 C68.045,16.155 66.987,15.097 66.987,13.791 C66.987,12.485 68.045,11.427 69.351,11.427 C69.95,11.427 70.496,11.65 70.913,12.017" id="Shape"></path>
                <path d="M70.913,24.29 C71.405,24.723 71.715,25.358 71.715,26.064 C71.715,27.369 70.657,28.428 69.351,28.428 C68.045,28.428 66.987,27.37 66.987,26.064 C66.987,24.759 68.045,23.7 69.351,23.7 C69.95,23.701 70.496,23.924 70.913,24.29" id="Shape"></path>
                <path d="M89.837,37.695 C89.274,35.042 82.601,13.415 79.707,9.958 C73.792,6.34 68,5.183 65.174,4.818 C64.085,4.677 62.998,5.088 62.266,5.907 L55.686,13.271 C55.01,14.028 54.043,14.46 53.029,14.46 L45.834,14.46 L45.673,14.46 L38.639,14.46 C37.624,14.46 36.658,14.027 35.982,13.271 L29.402,5.907 C28.67,5.088 27.583,4.677 26.494,4.818 C23.667,5.184 17.875,6.34 11.961,9.958 C9.067,13.415 2.394,35.042 1.831,37.695 C1.268,40.348 -4.359,59.965 9.549,62.618 C17.83,56.91 21.206,50.398 27.477,47.343 C31.322,46.643 35.811,46.861 45.834,46.861 L45.995,46.861 C56.018,46.861 60.347,46.644 64.191,47.343 C70.462,50.398 73.839,56.91 82.119,62.618 C96.027,59.965 90.399,40.349 89.837,37.695 L89.837,37.695 Z M22.545,26.52 C18.771,26.52 15.711,23.46 15.711,19.686 C15.711,15.912 18.771,12.852 22.545,12.852 C26.319,12.852 29.379,15.912 29.379,19.686 C29.379,23.461 26.319,26.52 22.545,26.52 L22.545,26.52 Z M40.581,36.02 C40.581,36.442 40.239,36.785 39.816,36.785 L36.599,36.785 C36.386,36.785 36.213,36.958 36.213,37.171 L36.213,40.388 C36.213,40.81 35.871,41.153 35.448,41.153 L32.529,41.153 C32.107,41.153 31.764,40.811 31.764,40.388 L31.764,37.17 C31.764,36.957 31.591,36.784 31.378,36.784 L28.161,36.784 C27.739,36.784 27.396,36.442 27.396,36.019 L27.396,33.1 C27.396,32.678 27.738,32.335 28.161,32.335 L31.378,32.335 C31.591,32.335 31.764,32.162 31.764,31.949 L31.764,28.732 C31.764,28.31 32.106,27.967 32.529,27.967 L35.448,27.967 C35.87,27.967 36.213,28.309 36.213,28.732 L36.213,31.949 C36.213,32.162 36.386,32.335 36.599,32.335 L39.816,32.335 C40.238,32.335 40.581,32.677 40.581,33.1 L40.581,36.02 L40.581,36.02 Z M39.346,21.857 C38.236,21.857 37.336,20.957 37.336,19.847 C37.336,18.737 38.236,17.837 39.346,17.837 C40.456,17.837 41.356,18.737 41.356,19.847 C41.355,20.958 40.456,21.857 39.346,21.857 L39.346,21.857 Z M69.351,10.682 C71.068,10.682 72.46,12.074 72.46,13.791 C72.46,15.508 71.068,16.9 69.351,16.9 C67.634,16.9 66.242,15.508 66.242,13.791 C66.243,12.074 67.635,10.682 69.351,10.682 L69.351,10.682 Z M52.613,17.838 C53.723,17.838 54.623,18.738 54.623,19.848 C54.623,20.958 53.723,21.858 52.613,21.858 C51.503,21.858 50.603,20.958 50.603,19.848 C50.604,18.738 51.503,17.838 52.613,17.838 L52.613,17.838 Z M57.654,40.538 C53.88,40.538 50.82,37.478 50.82,33.704 C50.82,29.93 53.88,26.87 57.654,26.87 C61.428,26.87 64.488,29.93 64.488,33.704 C64.488,37.479 61.429,40.538 57.654,40.538 L57.654,40.538 Z M62.958,22.956 C61.241,22.956 59.849,21.564 59.849,19.847 C59.849,18.13 61.241,16.738 62.958,16.738 C64.675,16.738 66.067,18.13 66.067,19.847 C66.067,21.564 64.675,22.956 62.958,22.956 L62.958,22.956 Z M69.351,29.174 C67.634,29.174 66.242,27.782 66.242,26.065 C66.242,24.348 67.634,22.956 69.351,22.956 C71.068,22.956 72.46,24.348 72.46,26.065 C72.46,27.782 71.068,29.174 69.351,29.174 L69.351,29.174 Z M75.569,22.956 C73.852,22.956 72.46,21.564 72.46,19.847 C72.46,18.13 73.852,16.738 75.569,16.738 C77.286,16.738 78.678,18.13 78.678,19.847 C78.678,21.564 77.286,22.956 75.569,22.956 L75.569,22.956 Z" id="Shape"></path>
            </g>
        </g>
    </g>
</svg>