<?xml version="1.0" encoding="UTF-8" standalone="no"?>
<svg width="92px" height="76px" viewBox="0 0 92 76" version="1.1" xmlns="http://www.w3.org/2000/svg" xmlns:xlink="http://www.w3.org/1999/xlink">
    <!-- Generator: Sketch 39.1 (31720) - http://www.bohemiancoding.com/sketch -->
    <title>noun_137792_cc</title>
    <desc>Created with Sketch.</desc>
    <defs></defs>
    <g id="Page-1" stroke="none" stroke-width="1" fill="none" fill-rule="evenodd">
        <g id="noun_137792_cc" fill="#454553">
            <g id="Group">
                <path d="M0.542,2.976 L0.542,23.561 C0.542,25.051 1.757,26.256 3.247,26.256 L5.95,26.256 L5.95,0.277 L3.247,0.277 C1.757,0.277 0.542,1.486 0.542,2.976 L0.542,2.976 Z" id="Shape"></path>
                <path d="M88.754,0.277 L86.059,0.277 L86.059,26.255 L88.754,26.255 C90.246,26.255 91.457,25.05 91.457,23.56 L91.457,2.976 C91.457,1.486 90.246,0.277 88.754,0.277 L88.754,0.277 Z" id="Shape"></path>
                <path d="M19.897,73.023 C19.897,74.511 21.106,75.722 22.596,75.722 L69.404,75.722 C70.888,75.722 72.105,74.511 72.105,73.023 L72.105,70.634 L19.897,70.634 L19.897,73.023 L19.897,73.023 Z" id="Shape"></path>
                <path d="M55.037,0.861 C52.439,2.934 49.312,4.029 46.001,4.029 C42.688,4.029 39.563,2.933 36.964,0.861 C36.477,0.485 35.888,0.278 35.277,0.278 L7.744,0.278 L7.744,26.256 L19.897,26.256 L19.897,68.834 L72.105,68.834 L72.105,26.255 L84.256,26.255 L84.256,0.277 L56.726,0.277 C56.111,0.277 55.521,0.484 55.037,0.861 L55.037,0.861 Z M61.33,30.197 C61.33,38.65 54.453,45.527 46,45.527 C37.547,45.527 30.67,38.65 30.67,30.197 C30.67,21.744 37.547,14.867 46,14.867 C54.453,14.867 61.33,21.744 61.33,30.197 L61.33,30.197 Z" id="Shape"></path>
                <path d="M32.27,30.197 C32.27,37.768 38.43,43.927 46,43.927 C53.571,43.927 59.73,37.768 59.73,30.197 C59.73,22.626 53.571,16.467 46,16.467 C38.429,16.467 32.27,22.626 32.27,30.197 L32.27,30.197 Z M46.723,21.477 L48.923,25.933 L53.839,26.647 C54.142,26.691 54.394,26.904 54.489,27.195 C54.585,27.488 54.505,27.807 54.286,28.021 L50.727,31.49 L51.567,36.387 C51.618,36.69 51.493,36.994 51.247,37.175 C51.106,37.277 50.94,37.327 50.772,37.327 C50.643,37.327 50.516,37.299 50.399,37.236 L46,34.924 L41.602,37.237 C41.331,37.38 41.001,37.356 40.753,37.175 C40.506,36.994 40.382,36.69 40.433,36.387 L41.272,31.49 L37.714,28.021 C37.494,27.807 37.415,27.488 37.51,27.195 C37.605,26.904 37.856,26.691 38.16,26.647 L43.077,25.933 L45.277,21.477 C45.549,20.927 46.451,20.927 46.723,21.477 L46.723,21.477 Z" id="Shape"></path>
            </g>
        </g>
    </g>
</svg>