<?xml version="1.0" encoding="UTF-8" standalone="no"?>
<svg width="208px" height="130px" viewBox="0 0 208 130" version="1.1" xmlns="http://www.w3.org/2000/svg" xmlns:xlink="http://www.w3.org/1999/xlink">
    <!-- Generator: Sketch 39.1 (31720) - http://www.bohemiancoding.com/sketch -->
    <title>noun_207784_cc</title>
    <desc>Created with Sketch.</desc>
    <defs></defs>
    <g id="Page-1" stroke="none" stroke-width="1" fill="none" fill-rule="evenodd">
        <g id="noun_207784_cc" fill="#454553">
            <path d="M205.785,16.307 C205.306,14.336 204.402,15.144 203.721,13.818 C202.823,12.067 203.163,9.864 202.071,8.423 C201.535,7.434 200.602,7.191 199.592,6.763 C199.075,7.429 198.731,7.611 197.942,8.008 C197.541,7.901 197.756,8.133 197.528,7.593 C196.575,7.727 196.503,7.786 195.877,8.008 C195.121,11.12 194.058,16.075 193.814,19.627 L191.751,19.627 L191.751,21.287 L191.338,21.287 C188.309,23.398 182.781,22.427 179.776,24.607 C178.2,25.887 177.813,27.977 176.059,29.171 C176.276,30.491 176.606,31.263 177.298,32.076 C176.885,32.629 176.473,33.182 176.059,33.736 C174.194,34.155 169.885,34.337 168.213,35.395 L167.387,35.395 C167.524,36.873 167.413,36.779 168.213,37.47 C167.483,41.439 160.897,45.689 157.065,46.6 C156.459,46.924 155.381,46.786 154.586,46.184 L153.762,46.184 C154.018,44.921 154.284,43.655 154.999,42.864 L154.999,42.034 L156.238,42.034 C156.174,38.289 155.006,36.666 154.173,34.15 C152.99,34.096 153.572,33.857 152.936,34.15 C151.796,34.69 151.674,35.424 150.871,36.225 L150.871,36.64 L150.459,36.64 C150.991,34.289 153.319,31.743 151.284,28.756 C150.581,27.52 148.995,27.549 147.981,26.681 C146.337,26.705 144.926,26.542 144.264,27.511 C144.401,27.926 144.537,28.342 144.676,28.756 C144.125,28.894 143.575,29.032 143.024,29.171 C141.809,30.116 140.962,32.893 140.547,34.566 C139.393,39.231 144.59,44.878 139.723,47.43 C139.297,47.765 139.619,47.583 138.897,47.845 C136.696,44.138 135.016,35.222 138.483,30.832 C138.014,29.412 138.551,29.997 137.245,30.001 C137.474,29.48 137.741,28.749 138.071,28.341 C139.528,25.942 145.172,25.681 149.218,25.852 C148.589,24.45 148.085,24.751 147.981,22.532 C146.877,22.67 145.778,22.808 144.676,22.947 L144.676,21.702 C142.036,21.766 139.34,22.546 137.655,23.776 C135.536,23.176 135.848,21.941 133.114,21.702 C133.802,21.01 134.491,20.318 135.176,19.627 L135.176,18.797 C131.233,19.389 128.998,24.046 125.68,23.776 C124.35,23.134 125.696,23.547 124.856,22.532 C124.295,22.227 123.1,22.653 122.377,23.362 L121.552,23.362 L121.552,22.947 C122.846,22.012 123.528,19.977 124.856,19.211 C126.264,18.399 127.801,18.211 128.983,17.552 C127.173,14.697 122.965,17.407 121.137,16.722 C120.864,16.306 120.587,15.892 120.313,15.477 C117.498,14.123 114.298,14.132 111.229,13.817 C111.202,11.552 110.948,11.595 109.991,10.498 L109.164,10.498 L109.164,12.572 C83.696,12.455 60.452,10.602 40.205,5.103 C35.073,3.709 24.286,3.087 20.797,0.539 L18.319,0.539 C18.548,1.06 18.816,1.792 19.146,2.199 C17.367,5.559 14.533,2.538 12,1.579 L11.71,1.37 L11.682,1.471 C11.552,1.431 11.424,1.396 11.298,1.37 C11.292,1.899 11.286,2.411 11.279,2.91 L4.619,26.71 C4.299,27.124 4.029,27.531 3.865,27.927 C3.283,29.328 3.492,30.484 3.73,31.633 L2.928,37.076 C1.946,38.489 0.94,38.698 1.8,42.036 C2.442,44.525 0.476,46.259 0.974,48.261 C1.387,48.675 1.8,49.09 2.212,49.505 C2.849,50.634 3.551,53.408 3.865,54.485 C4.671,57.256 3.228,58.689 5.516,59.88 C5.054,60.841 5.13,60.633 4.277,61.124 C4.702,64.908 9.101,68.712 7.168,71.498 L7.168,73.158 C7.627,73.937 8.745,73.179 9.646,73.573 C11.832,74.527 12.308,77.05 15.014,77.722 L15.014,79.381 C18.933,80.114 17.087,82.71 18.731,85.607 C20.456,86.999 25.412,87.249 28.228,87.267 L28.228,88.51 C36.673,92.681 42.849,98.646 55.482,98.885 L55.482,96.396 C57.161,96.585 60.732,96.771 62.089,97.64 C62.533,97.857 68.573,103.949 68.696,104.28 C69.433,106.275 68.511,107.816 69.521,109.259 C71.311,110.364 73.102,111.473 74.89,112.578 C76.856,112.159 77.775,109.892 78.607,108.43 C85.21,108.731 84.805,112.286 87.278,116.729 C88.002,118.031 90.288,119.198 90.994,120.463 C91.132,121.846 91.268,123.231 91.407,124.611 C93.298,127.673 97.11,127.144 100.079,129.175 L101.317,129.175 C101.051,128.459 101.236,128.769 100.905,128.345 L100.905,119.216 C101.824,117.816 105.193,117.234 106.683,116.312 C109.474,114.587 112.116,111.03 115.357,110.087 C119.511,108.878 123.267,111.796 126.091,110.087 C126.845,111.407 127.581,111.983 128.57,112.992 C130.201,112.807 130.271,112.654 131.049,111.746 C131.446,112.415 131.072,111.786 131.049,112.992 C131.761,112.723 131.453,112.91 131.874,112.576 C133.188,112.026 132.976,112.229 133.113,110.502 C133.743,111.001 134.6,111.581 135.175,112.161 C136.222,112.118 136.706,112.11 137.241,111.746 C137.573,111.319 137.391,111.643 137.653,110.918 C136.643,110.449 136.317,110.183 134.762,110.087 C135.557,107.873 136.36,108.202 134.762,106.353 C136.954,105.673 140.043,106.367 140.956,104.279 C141.421,105.115 141.17,105.023 140.956,105.939 C145.016,105.594 150.955,103.085 152.518,107.597 C154.758,107.396 156.419,107.004 157.061,105.109 C159.669,105.341 162.376,107.825 164.081,109.257 C164.931,110.646 163.911,113.181 164.494,115.068 C165.895,119.599 170.429,123.338 173.992,125.857 L173.992,127.517 C175.399,127.427 176.098,127.318 176.883,126.685 L177.296,126.685 C176.683,127.503 175.694,128.226 174.817,128.76 L174.817,129.59 C177.366,129.103 177.539,127.392 178.946,125.857 C178.598,121.359 178.289,116.84 176.469,113.824 C176.033,113.101 174.786,112.073 174.405,111.334 C174.546,110.957 175.174,110.438 174.817,109.674 C174.129,109.121 173.44,108.569 172.753,108.014 C171.026,105.594 169.564,102.382 169.036,98.886 C168.332,94.207 172.126,91.99 173.992,89.755 C174.811,88.776 176.442,87.104 176.883,86.022 L176.883,83.949 C177.655,82.45 179.388,83.327 180.599,82.289 C180.738,81.459 180.875,80.628 181.013,79.799 C181.874,78.277 185.435,76.805 186.792,75.65 C186.329,73.913 186.927,74.835 185.142,74.82 C185.28,74.683 185.416,74.545 185.554,74.406 C186.052,73.541 187.618,72.802 188.445,72.332 C188.269,70.13 187.529,67.287 185.968,65.277 C185.629,64.841 184.669,65.238 184.316,64.862 C183.088,63.555 184.07,61.065 182.667,59.883 L182.667,58.638 C183.176,59.221 183.396,60.129 183.904,60.713 L184.73,60.713 C185.271,61.706 184.152,62.591 184.73,63.617 L184.73,64.447 L185.968,64.447 C186.489,60.092 189.347,56.176 185.142,53.659 L185.142,53.243 C186.308,53.724 185.918,53.296 186.38,54.488 C189.297,53.931 190.92,48.119 188.859,45.359 C189.75,44.406 190.261,42.78 191.338,42.039 C192.377,41.323 201.524,37.2 202.486,37.059 C202.321,36.207 202.382,36.26 202.073,35.814 C201.765,34.853 201.644,34.888 201.248,34.155 L200.008,34.155 C200.438,35.282 200.602,35.068 201.248,35.814 L200.835,35.814 C200.697,35.953 200.561,36.091 200.422,36.23 C199.596,35.4 198.77,34.569 197.943,33.74 C197.9,32.29 197.804,30.417 198.357,29.59 C198.573,24.884 202.441,26.32 203.31,22.536 C204.847,22.791 205.867,21.044 207.441,20.046 L207.441,16.311 C206.889,16.307 206.336,16.307 205.785,16.307 L205.785,16.307 Z" id="Shape"></path>
        </g>
    </g>
</svg>