<?xml version="1.0" encoding="UTF-8" standalone="no"?>
<svg width="562px" height="500px" viewBox="0 0 562 500" version="1.1" xmlns="http://www.w3.org/2000/svg" xmlns:xlink="http://www.w3.org/1999/xlink">
    <!-- Generator: Sketch 39.1 (31720) - http://www.bohemiancoding.com/sketch -->
    <title>Shape</title>
    <desc>Created with Sketch.</desc>
    <defs></defs>
    <g id="Page-1" stroke="none" stroke-width="1" fill="none" fill-rule="evenodd">
        <path d="M395.7,-2.84217094e-14 L393.9,-2.84217094e-14 C384.1,0.2 373.7,2.54 363.1,6.46 C341.8,14.28 318.7,28.79 295.2,49.25 C290.6,53.26 285.9,57.56 281.2,62.06 C278.1,59.06 275,56.26 271.9,53.46 C247,31.38 222.5,15.85 200.1,7.48 C188.9,3.3 178,0.79 167.8,0.55 C157.6,0.3 148.1,2.3 139.8,7.14 C123.6,16.47 114.8,34.85 111,57.16 C107.1,79.6 108.1,106.8 114.1,137.4 C115.3,143.5 116.7,149.7 118.3,156.1 C111.1,158.1 104.1,160.3 97.5,162.6 C68.37,172.7 44.81,185.5 27.89,199.9 C10.97,214.4 0,231.2 0,249.5 C0,268.4 11.53,285.9 29.36,301.1 C47.19,316.4 72.07,330 102.8,340.4 C107.7,342.1 112.7,343.7 117.9,345.2 C116.2,352 114.7,358.7 113.5,365.2 C107.8,395.5 107.1,422.3 111.1,444.2 C115.2,466.1 124.3,484 140.2,493.1 C156.5,502.6 177.4,501.3 199.6,493.5 C221.7,485.7 245.8,470.9 270.2,449.5 C274.1,446.1 278,442.5 281.9,438.7 C287,443.6 292.1,448.3 297.2,452.6 C320.5,472.7 343.3,486.7 364.3,494.1 C385.3,501.5 405.4,502.6 421.2,493.4 C437.6,483.9 446.9,465.2 451.2,442.1 C455.5,419 454.7,390.7 448.4,358.9 C447.4,354 446.3,348.9 445.1,343.9 C448.6,342.8 452.1,341.7 455.5,340.6 C487.1,330.2 512.8,316.8 531.3,301.6 C549.8,286.4 561.8,268.8 561.8,249.5 C561.8,230.9 550.3,214.1 532.9,199.5 C515.5,185 491.4,172.2 461.9,162.1 C456.1,160.1 450.1,158.2 443.9,156.4 C444.9,152.3 445.9,148.2 446.7,144.1 C453.4,111.5 454.6,82.5 450.7,58.87 C446.7,35.25 437.5,16.05 420.8,6.41 C413.3,2.05 404.7,0.07 395.7,-2.09610107e-13 L395.7,-2.84217094e-14 Z M394,24.15 C400.3,23.99 405.3,25.15 408.8,27.2 C416.4,31.55 423.7,43.25 427,62.77 C430.3,82.4 429.4,108.8 423.1,139.2 C422.3,142.9 421.5,146.6 420.6,150.4 C397.4,145 372.1,141 345.5,138.5 C330.2,116.7 314.2,96.7 298,79.2 C302.4,75.07 306.6,71.07 310.9,67.37 C332.8,48.36 353.9,35.41 371.4,28.99 C380.1,25.78 387.7,24.31 394,24.15 L394,24.15 Z M165.2,24.7 L167.6,24.7 C174.3,24.89 182.4,26.5 191.7,29.96 C210.3,36.9 232.8,50.86 255.9,71.46 C258.7,73.96 261.5,76.56 264.3,79.3 C248.1,96.7 232,116.6 216.5,138.4 C190,140.9 164.7,144.9 141.6,150.1 C140.1,144.2 138.8,138.4 137.7,132.8 C132.1,104.4 131.5,79.6 134.6,61.26 C137.8,42.93 144.7,32.03 151.8,27.91 C155.1,26 159.6,24.83 165.2,24.69 L165.2,24.7 Z M281.2,96.5 C292.3,108.4 303.3,121.8 314.2,136.3 C303.3,135.8 292.1,135.5 280.9,135.5 C269.8,135.5 258.8,135.8 247.9,136.3 C258.9,121.8 270.1,108.5 281.2,96.5 L281.2,96.5 Z M280.9,159.5 C298.4,159.5 315.5,160.2 332.1,161.4 C341.5,175.2 350.6,189.7 359.3,204.7 C368,219.7 376.1,234.8 383.4,249.7 C376.1,264.8 368.1,280.1 359.3,295.2 C350.6,310.3 341.6,324.8 332.3,338.7 C315.6,339.9 298.4,340.5 280.9,340.5 C263.6,340.5 246.6,339.9 230,338.9 C220.6,325 211.4,310.5 202.6,295.4 C193.8,280.3 185.8,265.1 178.6,250.1 C185.8,235 193.8,219.9 202.5,204.8 C211.2,189.7 220.4,175.2 229.8,161.4 C246.4,160.2 263.5,159.5 280.9,159.5 L280.9,159.5 Z M198.9,164.5 C193,173.7 187.3,183.1 181.7,192.8 C176.1,202.5 170.9,212.2 165.9,221.8 C158.8,205.2 152.9,188.9 148,173.3 C164,169.7 181,166.8 198.9,164.5 L198.9,164.5 Z M362.9,164.6 C380.9,166.8 398.1,169.9 414.1,173.5 C409.3,189.1 403.2,205.3 396.1,221.9 C391,212.2 385.6,202.4 380,192.7 C374.4,183.1 368.7,173.7 362.9,164.6 L362.9,164.6 Z M124.7,179.2 C131.7,201.9 140.9,225.8 152.1,250.1 C140.7,274.8 131.4,299 124.3,322 C119.6,320.7 115,319.2 110.5,317.7 C82.1,308 59.68,295.5 44.97,282.9 C30.25,270.3 24,258.1 24,249.5 C24,241.2 29.71,230 43.49,218.2 C57.26,206.4 78.4,194.6 105.4,185.2 C111.5,183.1 118,181.1 124.7,179.2 L124.7,179.2 Z M437.5,179.5 C443.2,181.2 448.8,183 454.1,184.8 C481.5,194.2 503.3,206 517.6,218 C531.8,229.9 537.8,241.3 537.8,249.5 C537.8,258.2 531.4,270.4 516.1,283 C500.7,295.6 477.4,308.1 448,317.9 C444.9,318.9 441.8,319.9 438.6,320.8 C431.4,298 421.7,274 410.1,249.7 C421.3,225.7 430.5,202.1 437.5,179.5 L437.5,179.5 Z M280.9,199.4 C253.246521,199.438557 230.838557,221.846521 230.8,249.5 C230.783414,277.192524 253.207498,299.661367 280.9,299.7 C294.216308,299.707965 306.989503,294.42161 316.405556,285.005556 C325.82161,275.589503 331.107965,262.816308 331.1,249.5 C331.061367,221.807498 308.592524,199.383414 280.9,199.4 L280.9,199.4 Z M396.4,277.5 C403.8,294.5 410.2,311.1 415.2,326.9 C398.9,330.6 381.3,333.6 362.9,335.8 C368.7,326.5 374.5,316.9 380.1,307.2 C385.8,297.3 391.2,287.4 396.4,277.5 L396.4,277.5 Z M165.9,278.3 C170.9,288 176.2,297.7 181.8,307.4 C187.5,317.2 193.4,326.8 199.4,336.2 C181.2,334.2 163.8,331.4 147.7,327.9 C152.6,312 158.7,295.4 165.9,278.3 L165.9,278.3 Z M421.8,350 C423,354.6 424,359.2 424.9,363.6 C430.7,393 431.1,418.7 427.6,437.7 C424.1,456.8 416.6,468.3 409.2,472.6 C402,476.8 389.4,477.5 372.3,471.5 C355.2,465.4 334.4,453 312.8,434.4 C308.1,430.4 303.4,426.1 298.7,421.5 C314.8,403.9 330.6,383.7 345.8,361.7 C372.8,359.3 398.4,355.4 421.8,350 L421.8,350 Z M141.2,351.1 C164.6,356.3 190.1,359.9 216.9,362 C232.5,384 248.8,404.1 265.1,421.6 C261.5,425.1 258,428.4 254.4,431.5 C231.9,451.2 209.8,464.4 191.6,470.8 C173.3,477.3 159.6,476.6 152.2,472.3 C145,468.2 138.1,457.6 134.7,439.8 C131.4,422 131.8,397.8 137.1,369.7 C138.2,363.7 139.6,357.5 141.2,351.1 L141.2,351.1 Z M314.8,367.7 C303.9,382.5 292.9,396.1 281.9,408.3 C270.6,396.1 259.2,382.5 248.1,367.9 C258.9,368.3 269.8,368.5 280.9,368.5 C292.3,368.5 303.6,368.2 314.8,367.7 L314.8,367.7 Z" id="Shape" fill="#53C1DE"></path>
    </g>
</svg>