<?xml version="1.0" encoding="UTF-8" standalone="no"?>
<svg width="249px" height="224px" viewBox="0 0 249 224" version="1.1" xmlns="http://www.w3.org/2000/svg" xmlns:xlink="http://www.w3.org/1999/xlink">
    <!-- Generator: Sketch 39.1 (31720) - http://www.bohemiancoding.com/sketch -->
    <title>Group</title>
    <desc>Created with Sketch.</desc>
    <defs></defs>
    <g id="Page-1" stroke="none" stroke-width="1" fill="none" fill-rule="evenodd" opacity="0.5">
        <g id="Group" transform="translate(0.000000, 1.000000)" stroke="#FFFFFF" stroke-width="0.5" fill="#CCCCCC">
            <path d="M49.95,139.23 L48.79,136.89 L45.99,135.12 L44.6,133.07 L43.65,131.57 L41.01,131.11 L39.29,130.44 L36.35,129.48 L36.11,130.5 L37.19,132.88 L40.08,133.66 L40.58,134.89 L43.09,136.39 L43.93,137.9 L48.53,139.82 L49.95,139.23 L49.95,139.23 Z M217.75,147.34 L216.77,145.36 L215.71,146.62 L216.41,147.98 L219.97,149.69 L221.01,149.43 L222.39,147.77 L219.79,147.88 L217.75,147.34 L217.75,147.34 Z M222.88,135.92 L220.01,134.12 L216.32,133.03 L215.35,133.4 L217.96,135.44 L221.59,136.78 L222.95,136.7 L222.88,135.92 L222.88,135.92 Z M247.76,140.71 L247.4,138.47 L245.44,139.19 L246.31,136.08 L243.51,134.76 L242.22,135.81 L239.73,134.63 L240.71,133.12 L238.83,132.19 L237,133.66 L238.86,129.84 L240.36,127.04 L240.9,125.82 L239.6,125.62 L237.17,127.17 L235.43,129.7 L232.53,136.62 L230.18,139.18 L231.4,140.32 L229.65,141.79 L230.08,143.02 L235.52,143.15 L238.53,142.9 L241.22,143.91 L239.24,145.84 L240.91,145.98 L244.16,142.4 L244.94,142.93 L244.33,146.3 L246.17,147.07 L247.44,146.92 L248.62,143.31 L247.76,140.71 L247.76,140.71 Z M226.57,145.47 L223.76,150.03 L219.13,150.61 L215.49,148.6 L214.57,145.53 L213.68,141.07 L216.33,138.24 L213.85,136.15 L209.66,136.58 L203.78,140.11 L199.28,145.56 L196.9,146.23 L200.13,142.43 L204.17,136.86 L207.74,134.96 L210.09,131.85 L212.99,131.55 L217.2,131.58 L223.2,132.5 L227.94,131.79 L231.47,128.17 L236.09,126.58 L238.1,125 L240.14,123.29 L239.94,118.1 L238.81,116.33 L236.63,115.7 L235.52,111.65 L233.72,110.1 L229.25,108.84 L226.73,106.02 L223,103.19 L224.13,99.99 L221.03,93.73 L217.38,86.84 L215.2,81.86 L213.34,84.47 L210.66,90.52 L206.6,93.49 L204.57,90.33 L202.01,89.48 L201.08,82.49 L201.16,77.69 L196.16,77.25 L195.31,74.98 L191.86,71.54 L189.25,69.5 L186.93,71.08 L184.05,70.5 L179.24,68.85 L177.29,70.25 L178.23,79.43 L179.45,84.55 L176.14,90.3 L179.55,94.32 L181.45,98.76 L181.68,102.18 L180.13,105.68 L176.95,109.14 L172.46,111.42 L174.44,113.95 L175.9,121.35 L174.38,126.03 L172.22,127.49 L168.05,123.21 L166.02,118.04 L165.15,113.28 L165.61,109.09 L162.56,108.62 L157.93,108.34 L154.96,106.26 L151.45,104.89 L149.44,102.51 L146.64,100.57 L141.43,98.34 L137.51,99.36 L136.2,95.41 L134.94,90.42 L130.82,89.52 L130.97,83.11 L132.06,78.63 L135.1,72.03 L138.53,67.13 L141.79,66.36 L141.98,62.31 L144.19,59.63 L148.2,59.21 L151.45,54.82 L152.27,51.92 L154.97,46.19 L155.81,42.69 L158.71,44.8 L162.61,43.72 L168.1,38.76 L168.46,35.22 L166.48,31.24 L168.57,27.18 L168.4,23.31 L164.64,19.36 L160.5,18.17 L156.52,17.55 L156.37,26.26 L154.33,32.82 L151.4,38.12 L148.69,33.17 L149.53,27.56 L146.18,22.54 L142.43,28.63 L142.44,20.64 L137.23,19.01 L139.72,15 L135.91,5.41 L133.07,1.5 L129.37,0.06 L126.05,6.49 L125.83,15.83 L129.1,19.12 L132.1,24.03 L130.83,31.74 L128.57,31.54 L126.79,37.42 L126.81,30.42 L122.47,27.84 L119.98,29.17 L120.3,33.84 L116.21,33.66 L111.86,34.83 L106.91,31.48 L103.78,32.08 L100.96,27.97 L98.7,26.13 L96.46,26.9 L93.05,27.25 L91.24,29.86 L94.1,33.05 L91.05,36.77 L88.06,32.35 L85.67,33.65 L78.1,34.52 L73.03,32.93 L76.97,29.19 L73.19,25.29 L70.44,25.79 L66.58,24.47 L60.02,21.58 L55.73,18.21 L52.33,17.74 L51.27,20.1 L47.83,21.41 L47.45,15.26 L43.72,20.76 L38.98,13.44 L37.04,12.55 L36.41,16.46 L34.32,18.36 L32.39,14.97 L27.8,17.02 L23.6,20.57 L19.43,19.59 L16.03,22.09 L13.57,25.37 L10.65,24.65 L6.24,20.85 L1.01,18.91 L0.99,46.56 L0.98,81.99 L3.74,82.16 L6.47,83.72 L8.43,86.16 L10.92,89.76 L13.65,86.71 L16.46,84.92 L17.95,87.77 L19.84,90 L22.41,92.42 L24.16,96.21 L27.03,102.09 L31.8,105.29 L31.88,108.41 L30.32,110.76 L30.38,113.24 L33.77,116.69 L34.26,120.45 L37.85,122.41 L37.45,125.2 L39.01,129.16 L44.09,130.98 L46.09,132.87 L51.52,137.1 L51.9,137.11 L59.86,137.11 L68.18,137.11 L70.94,137.11 L79.49,137.11 L87.76,137.11 L96.17,137.11 L104.59,137.11 L114.12,137.11 L123.71,137.11 L129.51,137.11 L129.52,135.47 L130.47,135.45 L130.97,137.8 L131.84,138.52 L133.8,138.78 L136.66,139.45 L139.38,140.75 L141.65,140.2 L145.1,141.29 L146.24,139.63 L147.83,138.97 L148.45,137.94 L149.08,137.39 L151.69,138.25 L153.62,138.35 L154.29,138.92 L155.23,141.3 L158.38,141.93 L157.89,143.11 L159,144.32 L158.52,145.88 L159.7,146.39 L159.11,147.76 L159.86,147.89 L160.39,147.29 L160.94,148.19 L163.04,148.69 L165.17,148.73 L167.44,149.14 L169.95,149.92 L170.86,151.18 L172.68,154.22 L171.78,155.52 L169.5,154.98 L168.08,152.54 L168.44,155.03 L167.1,157.2 L167.25,159.04 L167.02,160.11 L165.21,161.38 L163.89,163.47 L163.27,164.79 L164.81,165.03 L166.89,163.83 L168.12,162.77 L168.95,162.6 L170.49,162.98 L171.24,162.39 L172.61,161.91 L175.05,161.44 L175.05,161.44 L175.05,161.44 L174.8,160.29 L174.67,160.33 L173.81,160.53 L172.69,160.17 L173.53,158.85 L174.38,158.39 L176.36,157.83 L178.73,157.3 L179.97,158.03 L180.75,157.18 L181.64,156.64 L182.24,156.93 L182.27,156.99 L185.14,154.26 L186.41,153.53 L190.67,153.5 L195.84,153.5 L196.12,152.52 L197.02,152.32 L198.21,151.7 L199.21,149.88 L200.07,146.73 L202.21,143.63 L203.14,144.71 L205.02,144.01 L206.27,145.2 L206.27,150.72 L208.1,152.97 L211.22,152.49 L215.71,152.36 L210.84,155.62 L210.95,158.91 L213.08,159.19 L216.21,156.4 L218.99,154.82 L225.2,152.47 L228.67,149.85 L226.86,148.39 L226.57,145.47 L226.57,145.47 Z M30.25,110.8 L30.25,110.8 L31.81,108.45 L30.25,110.8 L30.25,110.8 Z M26.85,114.09 L24.16,114.47 L22.84,113.85 L22.67,115.37 L23.19,117.44 L24.61,118.9 L25.65,121.03 L27.34,123.13 L28.46,123.14 L26.02,119.44 L26.85,114.09 L26.85,114.09 Z" id="CA"></path>
            <path d="M206.18,145.23 L204.93,144.04 L203.05,144.74 L202.12,143.66 L199.98,146.76 L199.12,149.91 L198.12,151.73 L196.93,152.35 L196.03,152.55 L195.75,153.53 L190.58,153.53 L186.32,153.56 L185.05,154.29 L182.18,157.02 L182.47,157.56 L182.64,159.07 L180.54,160.34 L178.24,160.02 L176.04,159.88 L174.71,160.32 L174.96,161.47 L174.96,161.47 L175.01,161.84 L172.59,164.11 L170.48,165.2 L169.04,165.71 L167.38,166.74 L165.35,167.24 L163.95,167.05 L162.22,166.28 L163.18,164.83 L163.8,163.51 L165.12,161.42 L164.98,159.85 L164.48,157.61 L163.44,157.22 L161.7,158.92 L161.14,158.89 L161,157.92 L162.54,156.36 L162.8,154.57 L162.57,152.78 L160.49,151.23 L158.11,150.43 L157.72,151.95 L157.1,152.35 L156.6,154.3 L156.34,152.97 L155.22,153.92 L154.52,155.24 L153.79,157.16 L153.65,158.8 L154.58,161.18 L154.5,163.69 L153.36,165.53 L152.79,166.05 L152.03,166.46 L151.08,166.48 L150.82,166.23 L150.06,164.25 L150.04,163.27 L150.12,162.33 L149.77,160.46 L150.3,158.28 L150.93,155.57 L152.39,152.54 L151.97,152.55 L149.91,155.09 L149.53,154.63 L150.63,153.21 L152.3,150.64 L154.21,150.28 L156.4,149.48 L158.61,149.9 L158.7,149.92 L161.17,149.56 L159.77,147.95 L159.02,147.82 L158.16,147.66 L157.57,146.52 L154.82,146.88 L152.33,147.78 L150.36,146.23 L148.77,145.71 L149.67,143.54 L147.19,144.91 L144.94,146.24 L142.78,147.28 L141.06,145.88 L138.25,146.73 L138.26,146.13 L140.16,144.4 L142.15,142.75 L145.01,141.38 L141.56,140.29 L139.29,140.84 L136.57,139.54 L133.71,138.87 L131.75,138.61 L130.88,137.89 L130.38,135.54 L129.43,135.56 L129.42,137.2 L123.62,137.2 L114.03,137.2 L104.5,137.2 L96.08,137.2 L87.67,137.2 L79.4,137.2 L70.85,137.2 L68.09,137.2 L59.77,137.2 L51.81,137.2 L52.76,140.67 L53.21,144.08 L52.52,145.17 L51.03,141.26 L46.98,139.84 L46.64,140.66 L47.46,142.6 L48.35,146.13 L48.86,151.55 L48.52,155.14 L48.18,158.68 L47.08,162.29 L47.98,165.19 L48.08,168.39 L47.47,171.44 L48.96,173.43 L49.35,176.38 L51.52,179.37 L52.76,180.54 L52.66,181.36 L55,186.21 L57.72,189.66 L58.06,191.53 L58.77,192.08 L61.37,192.41 L62.37,193.32 L63.94,193.49 L64.25,194.45 L65.56,194.85 L67.38,196.77 L67.85,198.47 L71.04,198.22 L74.6,197.86 L74.34,198.51 L78.57,200.11 L84.97,202.42 L90.55,202.4 L92.77,202.4 L92.78,201.05 L97.64,201.05 L98.66,202.21 L100.09,203.24 L101.76,204.67 L102.69,206.36 L103.39,208.13 L104.84,209.1 L107.17,210.06 L108.94,207.53 L111.23,207.47 L113.21,208.75 L114.62,210.93 L115.59,212.79 L117.24,214.59 L117.86,216.78 L118.65,218.25 L120.84,219.21 L122.83,219.89 L123.92,219.8 L123.39,218.74 L123.25,217.24 L123.28,215.08 L123.93,213.66 L125.46,212.15 L128.25,210.78 L130.8,208.41 L133.16,207.66 L134.9,207.43 L136.94,208.17 L139.39,207.77 L141.48,209.46 L143.51,209.56 L144.56,208.95 L145.6,209.42 L146.13,209 L145.53,208.37 L145.58,207.07 L145.08,206.21 L146.24,205.71 L148.38,205.49 L150.87,205.85 L154.04,205.44 L155.8,206.24 L157.16,207.74 L157.66,207.9 L160.49,206.44 L161.58,206.93 L163.77,209.61 L164.56,211.36 L163.98,213.46 L164.4,214.69 L165.7,217.09 L167.19,219.77 L168.26,220.48 L168.7,221.83 L170.08,222.2 L170.92,221.81 L171.62,219.92 L171.74,218.71 L171.83,216.61 L170.5,212.96 L170.48,211.59 L169.23,209.34 L168.29,206.59 L167.79,204.34 L168.22,202.03 L169.54,200.09 L171.12,198.52 L174.2,196.36 L174.6,195.24 L176.02,194.01 L177.42,193.79 L179.26,191.81 L182.16,190.8 L183.94,188.27 L183.55,184.81 L183.26,183.6 L182.46,183.36 L182.34,180.01 L180.41,178.87 L182.26,179.43 L181.66,177.17 L182.2,175.62 L182.53,178.59 L183.96,179.95 L183.09,182.35 L183.35,182.49 L184.93,179.68 L185.83,178.3 L185.79,176.95 L185.09,176.31 L184.51,174.37 L185.43,175.27 L186.05,175.46 L186.26,176.38 L188.3,173.6 L188.91,170.98 L188.08,170.81 L188.93,169.79 L188.85,170.24 L190.64,170.23 L194.57,169.12 L193.74,168.42 L189.62,169.12 L191.96,168.05 L193.59,167.87 L194.81,167.68 L196.88,167.03 L198.23,167.1 L200.12,166.49 L200.34,165.42 L199.5,164.58 L199.79,165.95 L198.63,165.86 L197.7,163.87 L197.73,161.86 L198.21,161 L199.69,158.72 L202.65,157.57 L205.53,156.23 L208.52,154.33 L208.04,153.04 L206.21,150.79 L206.18,145.23 L206.18,145.23 Z M26.85,114.09 L24.16,114.47 L22.84,113.85 L22.67,115.37 L23.19,117.44 L24.61,118.9 L25.65,121.03 L27.34,123.13 L28.46,123.14 L26.02,119.44 L26.85,114.09 L26.85,114.09 Z" id="US"></path>
        </g>
    </g>
</svg>