<svg xmlns="http://www.w3.org/2000/svg" viewBox="0 0 24 16"><g fill="#FFF"><path d="M16.715,11.311l2.164-1.144l-0.316-0.393c-0.123-0.151-0.183-0.431-0.134-0.62l0.965-3.713l-3.061-0.46 l-1.841,1.11l0.921-3.954h-0.626c-0.195,0-0.479-0.103-0.628-0.228L12,0.105L9.841,1.909c-0.15,0.125-0.433,0.228-0.628,0.228 H8.588l0.92,3.954L7.667,4.98l-3.06,0.46l0.965,3.713c0.049,0.189-0.011,0.469-0.134,0.62l-0.316,0.393l2.165,1.144 c0.307,0.162,0.438,0.553,0.293,0.868l-0.535,1.156h4.103v2.56h1.707v-2.56h4.103l-0.534-1.156 C16.276,11.863,16.407,11.473,16.715,11.311z"/><path d="M13.537,13.648c-0.204,0-0.37,0.166-0.37,0.371c0,0.204,0.166,0.369,0.37,0.369s0.369-0.165,0.369-0.369 C13.906,13.814,13.741,13.648,13.537,13.648z M13.537,14.31c-0.161,0-0.291-0.13-0.291-0.29c0-0.161,0.13-0.291,0.291-0.291 c0.16,0,0.291,0.13,0.291,0.291C13.828,14.18,13.697,14.31,13.537,14.31z"/><path d="M13.688,13.934c0-0.069-0.056-0.126-0.125-0.126h-0.179v0.423h0.08v-0.172h0.057l0.08,0.172h0.087 l-0.083-0.18C13.654,14.034,13.688,13.987,13.688,13.934z M13.563,13.979h-0.099v-0.093h0.099c0.025,0,0.046,0.021,0.046,0.047 S13.589,13.979,13.563,13.979z"/></g><g fill="#002868"><path d="M9.968 9.654L10.052 10.323 10.417 10.323 10.24 8.915 9.875 8.915 9.665 9.513 9.455 8.915 9.09 8.915 8.913 10.323 9.278 10.323 9.362 9.654 9.665 10.323zM11.022 8.915l-.45 1.408h.364l.071-.222h.535l.071.222h.365l-.45-1.408H11.022zM14.616 9.782L14.917 9.782 14.917 9.455 14.616 9.455 14.616 9.242 15.058 9.242 14.984 8.915 14.252 8.915 14.252 10.323 15.014 10.323 15.087 9.996 14.616 9.996zM13.261 8.915L13.261 10.323 14.022 10.323 14.097 9.996 13.626 9.996 13.626 8.915zM12.133 8.915v1.408h.364V9.884h.124c.268 0 .484-.159.484-.484s-.217-.484-.484-.484H12.133zM13.114 7.847L13.589 8.553 13.972 8.553 13.972 7.145 13.607 7.145 13.607 7.85 13.133 7.145 12.749 7.145 12.749 8.553 13.114 8.553zM14.376 8.553L14.74 8.553 14.74 7.511 15.027 7.511 15.027 7.145 14.171 7.145 14.09 7.511 14.376 7.511zM7.441 7.511L7.727 7.511 7.727 8.553 8.092 8.553 8.092 7.511 8.377 7.511 8.377 7.145 7.521 7.145zM10.401 7.962h.023l.254.591h.365l-.268-.622c0 0 .233-.067.233-.302 0-.326-.217-.484-.485-.484h-.487v1.408h.365V7.962zM15.826 7.109c-.405 0-.733.331-.733.739 0 .407.328.738.733.738.404 0 .733-.331.733-.738C16.56 7.44 16.23 7.109 15.826 7.109zM11.889 8.587c.405 0 .734-.331.734-.738 0-.408-.329-.739-.734-.739-.405 0-.733.331-.733.739C11.156 8.256 11.484 8.587 11.889 8.587zM9.91 7.849c0-.408-.329-.739-.733-.739-.405 0-.733.331-.733.739 0 .407.328.738.733.738C9.582 8.587 9.91 8.256 9.91 7.849zM11.705 10.686l-.45 1.409h.365l.071-.222h.534l.071.222h.364l-.449-1.409H11.705zM10.679 11.554L10.98 11.554 10.98 11.227 10.679 11.227 10.679 11.013 11.121 11.013 11.047 10.686 10.315 10.686 10.315 12.095 11.077 12.095 11.15 11.767 10.679 11.767zM13.572 11.013L13.498 10.686 12.766 10.686 12.766 12.095 13.13 12.095 13.13 11.554 13.432 11.554 13.432 11.227 13.13 11.227 13.13 11.013zM9.739 10.686L9.374 10.686 9.374 12.095 10.136 12.095 10.21 11.767 9.739 11.767zM14.041 11.112c0-.083.147-.115.221-.115.124 0 .218.019.283.036v-.359c-.065-.012-.159-.022-.283-.022-.27 0-.585.1-.585.461 0 .439.585.373.585.556 0 .083-.146.115-.221.115-.192 0-.312-.046-.364-.061v.364c.052.016.172.042.364.042.27 0 .585-.1.585-.461C14.626 11.229 14.041 11.295 14.041 11.112z"/></g><g fill="#FFF"><ellipse cx="9.177" cy="7.849" rx=".369" ry=".374"/><path d="M11.113 9.774L11.438 9.774 11.275 9.265zM12.498 9.242v.314h.086c.086 0 .156-.07.156-.157s-.07-.157-.156-.157H12.498z"/><circle cx="11.889" cy="7.848" r=".374"/><path d="M10.644 7.629c0-.087-.07-.157-.157-.157h-.085v.314h.085C10.574 7.786 10.644 7.716 10.644 7.629zM11.795 11.545L12.121 11.545 11.958 11.036z"/><circle cx="15.826" cy="7.848" r=".374"/></g></svg>