<svg xmlns="http://www.w3.org/2000/svg" viewBox="0 0 24 16"><g fill="#FFF"><path d="M13.139,15.631c0.132,0,0.238-0.106,0.238-0.239c0-0.131-0.106-0.238-0.238-0.238 s-0.239,0.107-0.239,0.238C12.899,15.524,13.007,15.631,13.139,15.631 M13.139,15.204c0.104,0,0.188,0.084,0.188,0.188 c0,0.104-0.084,0.188-0.188,0.188s-0.188-0.084-0.188-0.188C12.951,15.288,13.035,15.204,13.139,15.204"/><path d="M13.092,15.418h0.036l0.053,0.11h0.056l-0.054-0.115c0.031-0.012,0.054-0.041,0.054-0.076 c0-0.045-0.036-0.081-0.081-0.081H13.04v0.272h0.052V15.418z M13.092,15.307h0.063c0.017,0,0.03,0.014,0.03,0.03 s-0.014,0.029-0.03,0.029h-0.063V15.307z"/></g><path fill="#FFF" d="M19.899,7.705c-0.032-0.115-0.134-0.221-0.248-0.257l-0.065-0.021c0,0,0.099-0.17,0.014-0.351 l-0.237-0.504c-0.045-0.094-0.142-0.174-0.241-0.2l-0.237-0.062c0,0,0.073-0.163-0.059-0.314l-0.43-0.49 c-0.064-0.073-0.174-0.127-0.271-0.132l-0.227-0.012c0-0.097-0.044-0.193-0.119-0.253l-0.549-0.431 c-0.099-0.078-0.255-0.119-0.379-0.1L16.255,4.67c-0.109,0.017-0.209,0.102-0.242,0.206l-0.091,0.286 c-0.251-0.173-0.444-0.168-0.444-0.168l-0.021-0.047l0.129-0.019l0.118-0.528l-0.484,0.068l0.046-0.068l-0.01-0.015l0.479-0.119 l0.123-0.549l-0.545,0.135l-0.041-0.128l0.64-0.25l0.133-0.593l-0.769,0.3l0.072-0.428L15.265,2.69l0.841-1.809l-1.487,0.042 c-0.031-0.004-0.752-0.105-0.818-0.115c-0.131-0.073-0.601-0.305-1.411-0.443L12,0l-0.389,0.365 c-0.81,0.138-1.279,0.371-1.41,0.443c-0.068,0.009-0.788,0.11-0.818,0.115L7.895,0.881L8.736,2.69L8.654,2.754l0.073,0.428 l-0.769-0.3L8.09,3.475l0.64,0.25l-0.04,0.128L8.144,3.718l0.124,0.549l0.479,0.119l-0.01,0.015l0.046,0.068L8.297,4.401 l0.118,0.528l0.129,0.019C8.488,5.075,8.467,5.195,8.466,5.293c-0.12,0.032-0.222,0.081-0.304,0.132L7.988,4.876 C7.954,4.771,7.855,4.687,7.746,4.67L7.15,4.579c-0.124-0.019-0.28,0.021-0.379,0.1L6.222,5.109 c-0.075,0.06-0.119,0.156-0.119,0.253L5.876,5.374C5.779,5.379,5.669,5.433,5.605,5.506l-0.429,0.49 C5.044,6.147,5.117,6.311,5.117,6.311L4.879,6.373c-0.1,0.026-0.197,0.106-0.241,0.2L4.401,7.077 C4.316,7.258,4.414,7.428,4.414,7.428L4.35,7.448C4.235,7.484,4.133,7.59,4.101,7.705l-0.13,0.463 c-0.022,0.08-0.009,0.168,0.031,0.241l0.605,1.039C4.702,9.61,5.11,9.65,5.11,9.65c0.517,0.569,1.599,0.617,1.599,0.617 s-0.451-0.459-0.664-0.79L6.433,9.46c0.27,0.027,0.41,0.12,1.055-0.016l0.107,0.015c0.533,0.532,0.987,0.355,2.074,0.983V10.44 c0.129,0.183,0.292,0.428,0.428,0.677c-0.076,1.43,0.501,1.837,0.501,1.837l-0.115,0.449c-0.274,0.393,0.003,0.732,0.003,0.732 c0.057,0.16,0.2,0.237,0.338,0.328l0.027-0.077l0.203,0.146l0.062-0.165l0.182,0.197l0.081-0.221l0.089,0.097l-0.038,0.079 c-0.103,0.078-0.224,0.224-0.224,0.434l0.013,0.45l0.069-0.062l0.015,0.033c0.007,0.087,0.042,0.186,0.128,0.259l0.223,0.191 l0.02-0.059l0.228,0.188l0.048-0.146L12.142,16l0.071-0.217l0.184,0.157l0.095-0.312c0.106-0.061,0.207-0.177,0.207-0.362 c0-0.166,0.01-0.312,0.021-0.431c0.121,0.052,0.271,0.096,0.435,0.096c0.773,0,1.556-0.642,1.556-1.869 c0-0.288,0.076-0.742,0.076-0.818l-0.057,0.045l0.036-0.341l-0.152,0.117l-0.025-0.22l-0.094,0.053l-0.044-0.182l-0.072,0.037 l-0.072-0.225l-0.058,0.045l-0.113-0.31l-0.128,0.189l-0.22-0.333l-0.072,0.47l-0.034-0.018c0,0,0.036-0.274,0.018-0.607 l0.436-0.609v0.117c0.977-0.579,1.908-0.557,2.271-1.014l0.109-0.015c0.646,0.136,0.785,0.043,1.055,0.016l0.388,0.018 c-0.213,0.331-0.663,0.79-0.663,0.79s1.081-0.048,1.598-0.617c0,0,0.409-0.04,0.504-0.202l0.605-1.039 c0.039-0.073,0.053-0.161,0.03-0.241L19.899,7.705z M13.682,13.521c0,0.335-0.196,0.56-0.49,0.56c-0.153,0-0.317-0.127-0.41-0.216 c0,0,0.011-0.182,0.072-0.326c0.175-0.315,0.494-0.749,0.55-1.058C13.493,12.665,13.682,12.959,13.682,13.521"/><path fill="#002654" d="M19.708,7.759c-0.015-0.051-0.067-0.105-0.117-0.121l-0.3-0.095l0.121-0.211 c0.026-0.046,0.03-0.122,0.008-0.169l-0.238-0.505c-0.019-0.04-0.068-0.081-0.11-0.093l-0.457-0.12l0.081-0.185 c0.018-0.04,0.008-0.101-0.021-0.133l-0.429-0.49c-0.029-0.033-0.089-0.062-0.133-0.064l-0.468-0.025l0.049-0.156 c0.013-0.042-0.004-0.099-0.039-0.125l-0.549-0.432c-0.055-0.043-0.157-0.069-0.227-0.06l-0.595,0.091 c-0.035,0.006-0.072,0.037-0.083,0.07l-0.189,0.599c-0.293-0.403-0.621-0.349-0.684-0.334c-0.018-0.118-0.072-0.266-0.212-0.408 l0.304-0.042l0.025-0.113l-0.436,0.061c-0.047-0.035-0.099-0.071-0.159-0.104l0.176-0.195c-0.035-0.042-0.065-0.09-0.092-0.139 l0.63-0.156l0.026-0.115l-0.703,0.175c-0.052-0.118-0.077-0.218-0.077-0.218l0.375,0.071c-0.086-0.085-0.12-0.247-0.129-0.423 l0.682-0.266l0.028-0.125L15.055,3.48c0.003-0.319,0.072-0.646,0.072-0.646l-0.109-0.085l0.771-1.66l-1.183,0.034L13.734,1 c0,0-0.478-0.296-1.439-0.45L12,0.273L11.707,0.55C10.744,0.704,10.266,1,10.266,1L9.394,1.123L8.211,1.089l0.771,1.66 L8.874,2.834c0,0,0.069,0.327,0.071,0.646L8.233,3.203l0.028,0.125l0.682,0.266C8.935,3.77,8.9,3.931,8.814,4.017l0.375-0.071 c0,0-0.026,0.1-0.078,0.218L8.409,3.988l0.026,0.115l0.63,0.156C9.039,4.309,9.008,4.357,8.974,4.399l0.175,0.195 c-0.06,0.033-0.111,0.069-0.157,0.105L8.554,4.638L8.58,4.751l0.304,0.042c-0.313,0.32-0.199,0.661-0.199,0.661 c-0.398,0.031-0.625,0.31-0.625,0.31L7.798,4.937C7.787,4.903,7.75,4.872,7.716,4.866L7.12,4.775 c-0.069-0.01-0.171,0.017-0.226,0.06L6.345,5.267C6.311,5.293,6.293,5.35,6.306,5.392l0.049,0.156L5.887,5.573 C5.843,5.575,5.784,5.604,5.755,5.638l-0.429,0.49C5.297,6.16,5.288,6.221,5.305,6.261l0.082,0.185L4.93,6.565 C4.887,6.577,4.838,6.618,4.819,6.658L4.581,7.163C4.559,7.21,4.562,7.286,4.588,7.332L4.71,7.543l-0.3,0.095 c-0.05,0.016-0.103,0.07-0.117,0.121l-0.13,0.463C4.156,8.247,4.161,8.286,4.174,8.309l0.598,1.028c0,0,0.077,0.099,0.428,0.123 c0.39,0.45,0.985,0.533,0.985,0.533s-0.302-0.325-0.457-0.69c0.119-0.011,0.519-0.042,0.705-0.042 c0.222,0,0.382,0.144,1.047-0.019l0.218,0.029c0.325,0.454,0.959,0.406,1.772,0.84V9.986l0.13,0.025c0,0,0.414,0.524,0.7,1.059 c0,0-0.106,1.368,0.469,1.771c0,0,0.062,0.061,0.008,0.239c-0.061,0.191-0.068,0.364-0.149,0.47s-0.099,0.377,0.043,0.493 c0,0-0.002,0.065,0.058,0.108c0,0,0.027-0.054,0.033-0.087c0,0,0.025-0.001,0.047-0.008c0,0,0.021,0.037,0.098,0.063 c0,0,0.004,0.062,0.057,0.101c0,0,0.026-0.056,0.033-0.086c0,0,0.08,0.006,0.133-0.058c0,0,0.014,0.008,0.041,0.013 c0,0,0.01,0.051,0.059,0.103c0,0,0.029-0.055,0.036-0.096c0,0,0.075-0.002,0.115-0.056c0,0,0.011,0.002,0.024,0.001 c0,0,0.014,0.048,0.057,0.095c0,0,0.033-0.068,0.044-0.118c0,0,0.114-0.034,0.114-0.121s-0.057-0.346-0.057-0.346l0.068,0.096 c0,0,0.06-0.15-0.096-0.332c-0.039-0.291-0.142-0.477-0.142-0.477s0.093-0.093,0.112-0.134c0,0,0.113,0.518,0.385,1l-0.122,0.622 c0,0-0.092,0.131-0.179,0.324c0,0-0.188,0.102-0.182,0.312l0.086-0.079c0,0-0.119,0.279,0.01,0.428c0,0-0.018,0.104,0.059,0.17 c0,0,0.021-0.054,0.033-0.093c0,0,0.025,0.007,0.041-0.009c0,0,0.055,0.065,0.107,0.096c0,0,0,0.089,0.061,0.139 c0,0,0.024-0.058,0.034-0.103c0,0,0.042,0.008,0.074-0.024c0,0,0.042,0.026,0.083,0.035c0,0,0.002,0.052,0.058,0.107 c0,0,0.026-0.062,0.034-0.101c0,0,0.075-0.004,0.102-0.045l0.049,0.003c0,0,0.01,0.062,0.057,0.104c0,0,0.027-0.06,0.036-0.114 c0,0,0.168-0.024,0.168-0.213c0-0.392,0.052-0.682,0.052-0.754c0,0,0.271,0.22,0.603,0.22c0.631,0,1.356-0.508,1.356-1.67 c0-0.163,0.023-0.366,0.023-0.366l-0.053,0.042l0.037-0.35l-0.062,0.048l-0.032-0.271l-0.063,0.036l-0.045-0.191l-0.056,0.028 l-0.058-0.18l-0.049,0.038l-0.072-0.199l-0.078,0.115l-0.099-0.151l-0.036,0.234l-0.074-0.038l-0.009,0.245l-0.083-0.031 l0.004,0.227l-0.065-0.016l0.102,0.308l-0.066-0.003l0.101,0.206c0,0,0.104,0.314,0.104,0.729c0,0.468-0.311,0.759-0.689,0.759 c-0.323,0-0.615-0.34-0.615-0.34s0.013-0.354,0.107-0.507c0.096-0.152,0.448-0.68,0.511-0.953s0.351-0.433,0.303-1.577 l0.599-0.839l0.236-0.013v0.09c0.812-0.433,1.645-0.416,1.97-0.87l0.219-0.029c0.665,0.162,0.825,0.019,1.047,0.019 c0.187,0,0.586,0.031,0.705,0.042c-0.155,0.365-0.457,0.69-0.457,0.69s0.596-0.083,0.985-0.533 c0.351-0.024,0.427-0.123,0.427-0.123l0.599-1.028c0.014-0.022,0.019-0.062,0.012-0.087L19.708,7.759z"/><g fill="#FFF"><path d="M11.759 12.261c0 0 .069.356.186.626 0 0-.007-.434-.028-.897L11.759 12.261zM10.84 3.944l.19.21c0 0-.048.037-.104.1l.123.048c.021-.019.045-.027.064-.019.033.014.042.068.02.122-.021.054-.066.086-.1.072-.024-.01-.035-.042-.031-.079l-.145-.056c-.044.065-.082.144-.098.231l.293.072c.012-.017.027-.027.044-.027.036 0 .065.047.065.104 0 .059-.029.105-.065.105-.03 0-.056-.033-.063-.079l-.276-.068c.005.105.027.197.067.273l.25.035c.004-.017.014-.029.027-.034.033-.015.078.017.102.069.022.054.014.108-.019.122-.027.013-.063-.008-.087-.045l-.181-.025c.097.089.231.139.403.139.363 0 .602-.164.602-.164L11.92 4.975c-.326-.271-.543-.602-.543-.602l-.482-.473L10.84 3.944zM11.229 5.381c.072.489.258.641.258.641s-.042-.165.043-.641C11.465 5.316 11.248 5.325 11.229 5.381M11.809 5.395c0-.04-.15-.089-.154-.049-.016.174.061.301.061.301S11.809 5.483 11.809 5.395M11.84 5.387c0 .088.064.215.064.215s.068-.071.068-.221C11.973 5.344 11.84 5.342 11.84 5.387M13.084 5.076l-.181.025c-.024.037-.06.057-.087.045-.033-.014-.041-.068-.018-.122.022-.053.067-.084.101-.07.014.006.022.019.027.035l.249-.035c.041-.076.063-.168.068-.273l-.277.068c-.007.046-.032.079-.062.079-.036 0-.065-.047-.065-.105 0-.058.029-.104.065-.104.017 0 .032.011.043.027l.293-.072c-.015-.088-.053-.167-.098-.231l-.144.056c.004.037-.007.069-.031.079-.033.014-.078-.019-.101-.072-.021-.053-.013-.108.02-.122.021-.008.044 0 .064.019l.123-.048c-.056-.063-.104-.1-.104-.1l.19-.211-.056-.044-.481.473c0 0-.218.332-.543.602l-.003.076c0 0 .24.164.603.164C12.852 5.215 12.987 5.166 13.084 5.076M12.472 5.381c.085.476.042.641.042.641s.186-.151.258-.641C12.753 5.325 12.537 5.316 12.472 5.381M12.347 5.346c-.005-.04-.155.009-.155.049 0 .089.094.252.094.252S12.363 5.52 12.347 5.346M12.162 5.387c0-.045-.134-.043-.134-.006 0 .149.067.221.067.221S12.162 5.475 12.162 5.387M10.235 4.442L9.237 4.194C9.223 4.226 9.208 4.258 9.191 4.292l1.025.255C10.221 4.511 10.227 4.477 10.235 4.442M10.23 4.871L9.475 4.767l.114.125.676.094C10.251 4.951 10.239 4.912 10.23 4.871M10.402 4.049L9.067 3.528c0 .039 0 .077 0 .114l1.282.501C10.366 4.11 10.384 4.079 10.402 4.049M9.16 2.617l-.184-.32.231.033L8.961 2.053l.071-.099.522.229L9.605 2.11c0 0-.567-.243-1.117-.696l.596 1.258L9.16 2.617zM15.024 2.297l-.184.32.075.055.596-1.258c-.55.454-1.116.696-1.116.696l.05.073.522-.229.071.099-.246.278L15.024 2.297zM11.032 3.182c.099.008.188-.023.25-.079l-.021-.081c-.041.069-.129.112-.225.104-.129-.011-.225-.109-.216-.22.003-.03.013-.058.028-.082l-.072-.016c-.016.028-.025.059-.028.092C10.737 3.042 10.864 3.168 11.032 3.182M13.251 2.9c-.002-.033-.013-.064-.028-.092L13.15 2.824c.016.024.026.052.029.082.009.111-.088.209-.216.22-.097.008-.184-.036-.226-.104l-.02.081c.061.056.151.087.249.079C13.137 3.168 13.264 3.042 13.251 2.9M16.202 6.692c.17.442-.053 1.129-.053 1.129s.772-.594.617-1.631C16.312 6.347 16.202 6.692 16.202 6.692M17.71 6.918c-.476.167-.6.425-.6.425.086.61-.197 1.07-.197 1.07S17.818 7.946 17.71 6.918M17.96 8.021c.028.584-.291 1.087-.291 1.087s.893-.38.937-1.432C18.148 7.748 17.96 8.021 17.96 8.021M14.973 7.715c0 .662.234.896.234.896s-.061-.452.27-1.223C14.986 7.389 14.973 7.646 14.973 7.715M18.452 8.947c-.019.396-.316.791-.386.877.661-.198.953-.802.967-1.11C18.832 8.716 18.505 8.865 18.452 8.947M7.798 6.692c0 0-.11-.346-.564-.502C7.079 7.228 7.851 7.821 7.851 7.821S7.628 7.135 7.798 6.692M6.89 7.343c0 0-.124-.258-.599-.425C6.182 7.946 7.087 8.413 7.087 8.413S6.805 7.953 6.89 7.343M6.041 8.021c0 0-.188-.273-.646-.345.044 1.052.937 1.432.937 1.432S6.012 8.605 6.041 8.021M8.524 7.389c.33.771.27 1.223.27 1.223s.235-.234.235-.896C9.028 7.646 9.014 7.389 8.524 7.389M4.967 8.714c.014.309.305.912.967 1.11-.069-.086-.368-.48-.386-.877C5.496 8.865 5.168 8.716 4.967 8.714"/></g><path fill="#BF910C" d="M15.414 5.487l-1.45 1.153.078-.234 1.092-1.138c0 0-.049-.301-.328-.432l-.199.027-1.13 1.244c-.208 1.036-.429 1.398-.617 1.523l-.018-.126c0 0-.159.261-.293.378l-.076-.181-.211.286-.083-.187L12 8.09l-.178-.287-.084.187-.211-.286-.074.181c-.135-.117-.295-.378-.295-.378l-.017.126c-.188-.125-.409-.487-.617-1.523l-1.13-1.244.003.077 1.013 1.325.164.389L9.351 5.701 9.257 5.873l.935 1.324L9.133 6.34 9.039 6.469l.459.593-.17.006.272.378L9.47 7.457l.435.754L9.709 7.232l.839 1.611.088-.319.413.844.108-.25.438.732.078-.233L12 10.152l.327-.535.078.233.437-.732.109.25.413-.844.088.319.839-1.611-.194.979.435-.754L14.4 7.445l.272-.378-.17-.006.607-.559.475.16.254-.856L15.414 5.487zM10.173 1.302L9.66 1.787 9.831 1.848z"/><path fill="#BF910C" d="M14.866 4.391c-.021-.033-.039-.067-.057-.1L13.607 4.59c.003.028.005.058.005.087 0 .083-.011.155-.029.221l.943-.131L14.866 4.391zM14.934 3.642L13.46 4.218c.054.075.101.164.128.269l1.176-.292c-.097-.223-.114-.407-.114-.407l.309.059C14.943 3.792 14.937 3.721 14.934 3.642M9.927 2.479l1.446.32.098.272.203.031-.279.201.403.274-.023.039L11.471 3.5l-.109.117.343.265-.03.039-.25-.117-.25.218.133.085L12 4.357l.693-.25.195-.148-.203-.187L12.327 3.92l-.03-.039.412-.304-.101-.102-.382.141-.023-.039.404-.274-.28-.201.203-.031.097-.272 1.306-.289v.094l-.312.14-.187.405-.702.229.203.208-.117.086.287.228.056.044v0c0 0 .115.063.229.187l1.544-.603c.006-.297.058-.641.058-.641l-.313-.235.111-.195-.313.045.283-.32-.356.157-.81-1.272c-.603-.299-1.356-.399-1.356-.399L12 .445l-.152.144.121-.027.203.203c.519.101.67.218.67.218s-.304-.028-.498-.028C12.085.955 12 .989 12 1.03v.211c0 .122.094.208.094.208l-.141.312.141.188L12.062 2.97l.109.125L12 3.389l-.171-.295.109-.125L11.86 1.996l-.219-.187.188-.312-.172-.312-.28.328.078.109-.156.577.266.437-.07.085-.219-.242-1.192-.093-.039-.132.255-.21-.083-.105L9.857 2.19 9.927 2.479zM10.208 4.675c0 .072.008.138.022.196l.187.026c-.018-.065-.028-.138-.028-.221 0-.03.001-.059.005-.087l-.177-.043C10.21 4.588 10.208 4.631 10.208 4.675"/><path fill="#BF910C" d="M9.748 3.578L9.631 3.157l.397-.397.257.156.218.554.25.085v.094c0 0-.195.152-.352.401l.209.082c.113-.125.229-.187.229-.187l.055-.044.287-.228-.117-.086.203-.208-.701-.229-.187-.405-.312-.14L9.912 2.596 9.437 3.102l.218.437L9.748 3.578zM10.541 4.218l-.192-.075c-.048.09-.089.19-.114.299l.178.044C10.439 4.382 10.487 4.292 10.541 4.218M16.107 6.694C16.259 6.196 16.84 6.07 16.84 6.07c.069.357.04.665-.04.926.092-.029.156-.071.156-.071l.592-1.549-.491-.407-.396.062L16.47 5.634l.064.148c0 0 .2-.012.392.031 0 0 .042.274 0 .444 0 0-.029-.218-.074-.317-.339.032-.809.48-.809.715 0 .135.083.235.124.276C16.156 6.849 16.138 6.768 16.107 6.694M17.535 6.498c0 0 .164-.015.394.057 0 0 .009.308-.031.442 0 0-.02-.196-.055-.322-.318-.013-.798.326-.801.61.195-.357.745-.489.745-.489.047.296.021.549-.048.765.057-.002.145-.02.145-.02l.687-1.335-.409-.451-.388.033-.276.617L17.535 6.498zM18.502 7.218c0 0 .253.047.393.107 0 0-.034.252-.096.435 0 0-.012-.201-.034-.34-.245-.057-.931.289-.931.556 0 .082.021.136.034.162.003-.047.003-.094.001-.143.25-.384.831-.424.831-.424 0 .307-.062.562-.157.774.081-.001.148-.038.148-.038l.596-1.047-.222-.496-.392-.037-.186.389L18.502 7.218zM19.236 7.803L19 8.187l.008.103c0 0 .136.025.323.105 0 0-.045.262-.149.429 0 0 .038-.151-.009-.298-.451-.082-.846.312-.846.408 0 .044.016.081.025.101.007-.038.011-.077.011-.115.297-.322.764-.296.764-.296-.018.289-.104.518-.224.699.155-.022.197-.055.197-.055l.59-1.013-.11-.396L19.236 7.803zM15.536 8.479l-.063-.142c0 0-.082.027-.167.003-.032.338.026.521.026.521s-.338-.187-.428-.823l-.042-.027-.092-.155-.228.258.144-.021L13.924 8.96l.14.374.177.244.329-.159-.218-.218.513.062-.218-.279.559.165.351-.133L15.4 8.901l.283.011-.111-.171.371.093L15.536 8.479zM7.713 6.23c0 0-.284-.268-.572-.307 0 0-.282.463.037.994C7.116 6.675 7.098 6.392 7.161 6.07c0 0 .58.126.732.624-.03.072-.048.151-.059.232.265-.169.327-.414.327-.414L7.75 5.186 7.064 5.117 6.936 5.194 7.143 5.7C7.143 5.7 7.504 5.824 7.713 6.23M6.714 6.87c0 0-.353-.23-.575-.214 0 0-.15.477.108.856C6.19 7.307 6.17 7.069 6.213 6.796c0 0 .579.139.761.518.082-.095.103-.222.103-.222-.13-.047-.17-.117-.17-.117L6.468 5.847 5.945 5.87 5.856 5.994l.205.459C6.061 6.453 6.423 6.508 6.714 6.87M5.839 7.611c0 0-.337-.188-.587-.188 0 0-.109.492.167.827C5.347 8.059 5.301 7.834 5.301 7.571c0 0 .581.04.831.424-.002.046-.002.092 0 .137C6.164 8.101 6.218 8.04 6.218 7.986c0-.121-.028-.304-.028-.304C6.041 7.67 6.005 7.628 6.005 7.628L5.519 6.712 5.044 6.83 4.988 6.947l.187.312C5.175 7.259 5.517 7.265 5.839 7.611M5.637 8.919c0 .053.007.106.019.16.019-.014.049-.044.049-.098 0-.035-.016-.195-.024-.271C5.626 8.642 5.573 8.564 5.525 8.48 5.25 8.472 5.182 8.377 5.182 8.377L4.841 7.771l-.289.1L4.507 7.99l.208.332c0 0 .418.028.661.285 0 0-.235-.101-.571-.101-.04.21.103.715.293.817-.12-.182-.207-.411-.225-.701C4.874 8.623 5.34 8.597 5.637 8.919M9.458 8.114L9.23 7.856 9.138 8.012 9.096 8.039c-.09.637-.427.823-.427.823s.06-.188.024-.534L8.087 8.977 8.614 8.94 8.486 9.132l.472-.062L8.802 9.271l.576.233.321-.28.218-.456L9.314 8.093 9.458 8.114zM12.949 9.699L12.408 10.365 12.326 10.163 12 10.561 11.751 10.163 11.659 10.365 11.084 9.699 11.416 10.296 10.913 9.943 11.428 10.556 11.044 10.379 11.525 10.901 11.268 10.849 11.697 11.367 11.58 11.355 12 11.877 12.42 11.355 12.303 11.367 12.732 10.849 12.475 10.901 13.625 9.344 13.01 9.903zM11.207 13.255L11.271 13.533 10.695 13.796 10.694 13.873 10.803 13.912 10.878 13.82 10.91 13.943 11.044 13.962 11.096 13.839 11.158 13.925 11.303 13.9 11.309 13.761 11.402 13.848 11.506 13.788 11.315 13.121zM12.234 14.869L11.608 15.089 11.609 15.157 11.691 15.224 11.777 15.125 11.788 15.276 11.914 15.292 11.979 15.167 12.02 15.296 12.154 15.286 12.187 15.167 12.265 15.255 12.369 15.203 12.375 14.23 12.213 14.468z"/><path fill="#BF910C" d="M7.347 6.316L7.28 6.277c-.031.404.083 1 .409 1.311C7.502 7.309 7.378 7.108 7.347 6.316M6.332 7.01c.017.405.246.979.606 1.249C6.72 8.003 6.524 7.821 6.4 7.038L6.332 7.01zM5.541 7.77L5.469 7.753c.06.401.324.992.711 1.223C5.937 8.744 5.748 8.536 5.541 7.77M8.987 7.689L8.914 7.597c.031.133-.029.753-.082.89C8.958 8.161 8.994 7.8 8.987 7.689M5.09 8.796L5.02 8.782c.12.366.385.803.785.956C5.539 9.561 5.406 9.48 5.09 8.796M16.363 6.574l-.056.062c.031.497.051.738-.099 1.039C16.493 7.326 16.386 6.729 16.363 6.574M17.271 7.242l-.062.055c-.029.498-.045.718-.23.999C17.304 7.983 17.274 7.399 17.271 7.242M17.754 9.012c.345-.289.352-.896.358-1.052l-.065.05C17.983 8.505 17.957 8.745 17.754 9.012M15.015 7.689c-.007.109.028.471.156.796-.054-.136-.113-.756-.083-.889L15.015 7.689zM18.12 9.775c.358-.19.479-.723.514-.859l-.066.032C18.418 9.372 18.35 9.578 18.12 9.775"/><path fill="#BF910C" d="M16.72 8.571c.085-.122.252-.408.302-.792.012-.094.017-.191.012-.296-.178-.11-.228-.35-.228-.35-.021.008-.041.015-.062.021-.053.127-.116.24-.184.341-.236.348-.524.535-.576.567-.005.004-.009.006-.009.006s.001-.003.003-.008C16 8.006 16.124 7.673 16.165 7.312c.008-.074.013-.149.012-.224-.131-.078-.239-.192-.333-.307l-.145.329-.457-.147-.313.253-.117.465.073.125c-.001-.03-.003-.06-.003-.092 0-.278.229-.443.731-.416-.169.36-.252.663-.29.905l.032.026.212-.037.094.21.737.643c.191.167.724.146.724.146l.264-.077.154-.193.112.019c.027-.057.059-.126.088-.205.038-.102.073-.218.099-.345l-.023-.13c-.117-.132-.166-.138-.156-.5-.078.159-.178.293-.284.405-.238.249-.509.389-.634.445C16.696 8.63 16.67 8.64 16.67 8.64S16.689 8.615 16.72 8.571M7.281 8.572c.029.043.05.067.05.067S7.304 8.63 7.26 8.61C7.134 8.554 6.864 8.414 6.626 8.165 6.519 8.053 6.419 7.919 6.342 7.76c.009.362-.04.368-.157.5L6.162 8.39C6.187 8.517 6.223 8.633 6.26 8.734c.03.079.061.148.088.205L6.46 8.922h.001l.153.192.264.077c0 0 .532.021.723-.146L8.34 8.403l.094-.21L8.645 8.23l.032-.026C8.639 7.962 8.556 7.659 8.388 7.299c.502-.026.73.138.73.416 0 .032-.001.062-.002.092l.073-.125L9.072 7.217 8.758 6.964 8.301 7.111 8.156 6.782C8.063 6.896 7.955 7.011 7.824 7.089c0 .074.004.149.012.224.041.36.165.693.186.748.002.005.003.008.003.008S8.021 8.066 8.016 8.062C7.964 8.03 7.676 7.843 7.44 7.495 7.373 7.395 7.309 7.281 7.257 7.154 7.236 7.148 7.216 7.142 7.195 7.134c0 0-.049.239-.228.35-.005.104 0 .202.012.296C7.029 8.163 7.196 8.449 7.281 8.572"/><path fill="none" d="M11.145 12.289L11.309 12.396 11.309 12.396z"/><path fill="#BF910C" d="M11.377 11.732l-.273-.354.062.357-.193-.091.166.309-.212-.071.173.302-.151-.051.244.691.087.015.13-.197.161-.562L11.377 11.732zM13.107 10.958l-.691.851.157.263h-.198l.132.27-.165.007.222.453-.087.05-.211.699.125.042.592-1.068C12.982 12.523 13.212 11.213 13.107 10.958M14.285 13.75l-.024-.204-.062.313-.074-.253-.017.406-.054-.155-.028.202c-.066.12-.144.215-.227.289-.35.315-.782.267-.782.267l.086.053c.231.026.512-.055.757-.251.235-.188.438-.484.53-.896L14.285 13.75zM13.54 5.013c-.19.385-.692.399-.692.399L12.823 5.54c0 0-.058.497-.468.687 0 0 .153-.258.058-.712 0 0-.015.157-.152.295l-.078-.201c0 0-.03.063-.079.112 0 0-.078-.068-.104-.12-.025.052-.103.12-.103.12-.05-.049-.079-.112-.079-.112L11.74 5.81c-.139-.138-.152-.295-.152-.295-.096.454.057.712.057.712-.41-.189-.467-.687-.467-.687l-.023-.128c0 0-.504-.015-.694-.399l-.196-.027c.065.168.162.26.162.26.104.293.367.452.367.452l.236.748-.05.117-.163-.289L10.777 6.43l-.095-.17c.105.475.247.925.392 1.121l.102-.146c0 0 .09.274.235.42l.143-.163.153.261.127-.189L12 7.844l.167-.281.128.189.152-.261.143.163c.145-.146.234-.42.234-.42l.102.146c.145-.196.287-.646.393-1.121l.042-.21 1.052-1.158L13.54 5.013z"/><g fill="#002654"><path d="M12.506 2.72L12.725 2.479 13.325 2.354 13.1 2.166 12.624 1.512 12.546 1.621 12.701 2.198 12.437 2.635zM14.19 3.718L14.284 3.679 14.564 3.102 14.245 2.666 14.065 2.767 14.369 3.157zM13.224 6.43l-.039-.156-.163.289-.062-.148-.148.18.327-.936.156-.141.016-.093-.437.14-.05-.024c0 0-.058.497-.468.687 0 0 .153-.258.058-.712 0 0-.015.157-.152.295l-.078-.201c0 0-.03.063-.079.112 0 0-.078-.068-.104-.12-.025.052-.103.12-.103.12-.05-.049-.079-.112-.079-.112L11.74 5.81c-.139-.138-.152-.295-.152-.295-.096.454.057.712.057.712-.41-.189-.467-.687-.467-.687l-.05.024-.437-.14.016.093.156.141.326.936-.148-.18-.012.031-.05.117-.163-.289L10.777 6.43l-.095-.17c.105.475.247.925.392 1.121l.102-.146c0 0 .09.274.235.42l.143-.163.153.261.127-.189L12 7.844l.167-.281.128.189.152-.261.143.163c.145-.146.234-.42.234-.42l.102.146c.145-.196.287-.646.393-1.121L13.224 6.43z"/></g><g fill="#FFF"><path d="M13.247 3.554L13.294 3.617 13.629 3.593 13.879 3.227 13.746 3.071 13.496 3.468zM13.917 2.385L14.12 2.362 14.144 2.19 13.527 1.754 13.466 1.848 13.957 2.253zM13.707 7.326l-.53.499.065-.566c0 0-.168.35-.416.621l-.035-.148c0 0-.179.267-.285.328l-.068-.146-.191.229-.073-.119L12 8.267l-.172-.243-.072.119-.192-.229L11.496 8.06c-.107-.062-.286-.328-.286-.328L11.174 7.88c-.248-.271-.416-.621-.416-.621l.066.566-.53-.499.343.857L9.709 7.232l.839 1.611.088-.319.413.844.108-.25.438.732.078-.233L12 10.152l.327-.535.078.233.437-.732.109.25.413-.844.088.319.839-1.611-.927.951L13.707 7.326zM11.104 11.378L11.335 11.907 11.232 11.868 11.323 12.121 11.178 12.069 11.309 12.396 11.145 12.289 11.278 12.839 11.408 12.642 11.569 12.08 11.377 11.732zM12.573 12.071L12.375 12.071 12.507 12.341 12.342 12.348 12.563 12.801 12.477 12.851 12.266 13.55 12.391 13.592 12.387 13.371 12.463 13.302 12.438 13.105 12.53 13.029 12.491 12.897 12.624 12.847 12.565 12.663 12.667 12.604 12.597 12.428 12.725 12.398 12.616 12.207 12.795 12.191 12.679 11.981 12.857 11.972 12.717 11.666 12.857 11.714 13.107 10.958 12.416 11.809zM13.86 14.417l-.091.014.03-.082c-.35.315-.782.267-.782.267l.086.053C13.335 14.694 13.615 14.613 13.86 14.417M11.655 7.059c0-.055-.11-.204-.198-.582 0 0-.074.21-.018.525C11.453 7.08 11.655 7.101 11.655 7.059M11.826 7.057c0-.099-.06-.159-.06-.159s-.056.08-.056.159C11.711 7.086 11.826 7.085 11.826 7.057M11.924 6.904c0 0-.051.073-.057.16 0 .026.116.023.116-.002C11.979 6.948 11.924 6.904 11.924 6.904M12.562 7.002c.056-.315-.019-.525-.019-.525-.088.378-.197.527-.197.582C12.346 7.101 12.547 7.08 12.562 7.002M12.174 7.057c0 .028.115.029.115 0 0-.079-.055-.159-.055-.159S12.174 6.958 12.174 7.057M12.133 7.064c-.006-.087-.056-.16-.056-.16s-.054.044-.06.158C12.018 7.088 12.133 7.091 12.133 7.064"/><path d="M11.176,7.234c0,0,0.09,0.274,0.235,0.42l0.143-0.163l0.153,0.261l0.127-0.189L12,7.844l0.167-0.281 l0.128,0.189l0.152-0.261l0.143,0.163c0.145-0.146,0.234-0.42,0.234-0.42l0.102,0.146c0.145-0.196,0.287-0.646,0.393-1.121 l-0.095,0.17l-0.039-0.156l-0.163,0.289l-0.062-0.148l-0.148,0.18c0.031,0.315,0.029,0.668-0.481,0.668 C12.23,7.262,12,7.232,12,7.232s-0.23,0.029-0.328,0.029c-0.511,0-0.514-0.353-0.482-0.668l-0.148-0.18l-0.012,0.031l-0.05,0.117 l-0.163-0.289L10.777,6.43l-0.095-0.17c0.105,0.475,0.247,0.925,0.392,1.121L11.176,7.234z"/></g><g fill="#CE1126"><path d="M11.671 4.456c.074 0 .2.121.2.222 0 .034-.019.045-.019.045l.075.074L12 4.525l.073.271.075-.074c0 0-.02-.011-.02-.045 0-.101.127-.222.201-.222.056 0 .066.04.066.04.068-.068.165-.219.165-.219L12 4.492l-.562-.215c0 0 .097.15.166.219C11.604 4.496 11.615 4.456 11.671 4.456M12 5.12c-.037.088-.206.162-.206.162l.024.014c0 0 .09-.046.182.005.093-.051.182-.005.182-.005l.025-.014C12.207 5.282 12.039 5.208 12 5.12M12.355 6.227c0 0 .153-.258.058-.712 0 0-.015.157-.152.295l-.078-.201c0 0-.03.063-.079.112 0 0-.078-.068-.104-.12-.025.052-.103.12-.103.12-.05-.049-.079-.112-.079-.112L11.74 5.81c-.139-.138-.152-.295-.152-.295-.096.454.057.712.057.712-.41-.189-.467-.687-.467-.687l-.05.024c.081.528.215 1.092.215 1.092s.005-.172.144-.446c0 0 .057.385.188.69 0 0 .026-.051.086-.11 0 0 .054.04.089.085 0 0 .032-.043.067-.078 0 0 .062.04.083.078.021-.038.084-.078.084-.078.035.035.066.078.066.078.036-.045.09-.085.09-.085.06.06.086.11.086.11.131-.306.188-.69.188-.69.141.274.145.446.145.446s.133-.563.215-1.092l-.05-.024C12.823 5.54 12.766 6.037 12.355 6.227M11.225 2.94c.001-.013 0-.025-.004-.037l-.303-.064c-.02.02-.031.045-.035.073-.006.077.065.145.16.153C11.137 3.072 11.218 3.017 11.225 2.94M12.779 2.903c-.003.012-.004.024-.004.037.008.077.089.132.183.125.095-.008.165-.076.159-.153-.003-.028-.015-.053-.034-.073L12.779 2.903zM16.741 8.61l.111.2.688.11.112.019c.027-.057.059-.126.088-.205-.042-.082-.146-.266-.365-.569C17.137 8.414 16.866 8.554 16.741 8.61M15.979 8.061C16 8.006 16.124 7.673 16.165 7.312c-.058-.023-.117-.047-.18-.069 0 0-.064.516-.041.801L15.979 8.061zM16.561 7.495c-.236.348-.524.535-.576.567l.608.281.127.228c.085-.122.252-.408.302-.792C16.918 7.703 16.765 7.602 16.561 7.495M16.457 8.443L16.02 8.257c-.08-.034-.12-.005-.09.064l.058.127.378.324.142.039c.067.018.1-.021.072-.084L16.457 8.443zM7.44 7.495c-.204.106-.357.208-.46.284.049.384.217.67.302.792l.126-.228.608-.281C7.964 8.03 7.676 7.843 7.44 7.495M8.057 8.044C8.08 7.759 8.015 7.243 8.015 7.243 7.953 7.266 7.894 7.289 7.836 7.312c.041.36.165.693.186.748L8.057 8.044zM6.26 8.734c.03.079.061.148.088.205L6.46 8.922l.688-.111.112-.2C7.134 8.554 6.864 8.414 6.626 8.165 6.406 8.469 6.302 8.652 6.26 8.734M7.981 8.257L7.544 8.444 7.422 8.728C7.394 8.791 7.426 8.829 7.494 8.811l.141-.038.378-.324L8.07 8.321C8.102 8.251 8.062 8.223 7.981 8.257M14.13 12.938L14.142 12.537 14.052 12.653 14.02 12.031 13.886 12.464 13.978 12.331 13.979 12.843 14.091 12.695z"/><path d="M14.431 12.518L14.335 12.613 14.357 12.269 14.248 12.357 14.263 12.133 14.172 12.232 14.112 11.979 14.118 12.464 14.188 12.379 14.194 12.561 14.281 12.457 14.243 13.097 14.365 13 14.341 13.537 14.4 13.349 14.448 12.83 14.369 12.896zM14.16 13.056L14.087 13.134 14.044 12.933 14.021 13.298 14.097 13.219 14.095 13.424 14.172 13.351 14.183 13.521 14.246 13.186 14.162 13.262z"/></g><path fill="#002654" d="M11.956 6.578L12 6.718 12.045 6.578 12.071 6.161 12.18 5.783 12 5.993 11.821 5.783 11.93 6.161z"/><g fill="#FFF"><path d="M11.139 3.024c.023.002.045-.013.047-.033s-.017-.039-.041-.041S11.1 2.963 11.098 2.983 11.114 3.022 11.139 3.024M13.05 3.004c.024-.001.042-.02.04-.041-.001-.02-.022-.035-.047-.033S13 2.951 13.002 2.972 13.025 3.007 13.05 3.004"/></g></svg>