<svg width="92" height="76" viewBox="0 0 92 76" xmlns="http://www.w3.org/2000/svg"><title>noun_137792_cc</title><g fill="#454553" fill-rule="evenodd"><path d="M.542 2.976v20.585a2.702 2.702 0 0 0 2.705 2.695H5.95V.277H3.247A2.705 2.705 0 0 0 .542 2.976zM88.754.277h-2.695v25.978h2.695a2.699 2.699 0 0 0 2.703-2.695V2.976A2.702 2.702 0 0 0 88.754.277zM19.897 73.023a2.701 2.701 0 0 0 2.699 2.699h46.808a2.707 2.707 0 0 0 2.701-2.699v-2.389H19.897v2.389zM55.037.861a14.352 14.352 0 0 1-9.036 3.168A14.359 14.359 0 0 1 36.964.861a2.757 2.757 0 0 0-1.687-.583H7.744v25.978h12.153v42.578h52.208V26.255h12.151V.277h-27.53c-.615 0-1.205.207-1.689.584zm6.293 29.336c0 8.453-6.877 15.33-15.33 15.33s-15.33-6.877-15.33-15.33 6.877-15.33 15.33-15.33 15.33 6.877 15.33 15.33z"/><path d="M32.27 30.197c0 7.571 6.16 13.73 13.73 13.73 7.571 0 13.73-6.159 13.73-13.73 0-7.571-6.159-13.73-13.73-13.73-7.571 0-13.73 6.159-13.73 13.73zm14.453-8.72l2.2 4.456 4.916.714a.807.807 0 0 1 .447 1.374l-3.559 3.469.84 4.897a.811.811 0 0 1-.32.788.807.807 0 0 1-.848.061L46 34.924l-4.398 2.313a.805.805 0 0 1-1.169-.85l.839-4.897-3.558-3.469a.804.804 0 0 1 .446-1.374l4.917-.714 2.2-4.456c.272-.55 1.174-.55 1.446 0z"/></g></svg>