<svg width="249" height="224" viewBox="0 0 249 224" xmlns="http://www.w3.org/2000/svg"><title>Group</title><g stroke="#FFF" stroke-width=".5" fill="#CCC" fill-rule="evenodd" opacity=".5"><path d="M49.95 140.23l-1.16-2.34-2.8-1.77-1.39-2.05-.95-1.5-2.64-.46-1.72-.67-2.94-.96-.24 1.02 1.08 2.38 2.89.78.5 1.23 2.51 1.5.84 1.51 4.6 1.92 1.42-.59zm167.8 8.11l-.98-1.98-1.06 1.26.7 1.36 3.56 1.71 1.04-.26 1.38-1.66-2.6.11-2.04-.54zm5.13-11.42l-2.87-1.8-3.69-1.09-.97.37 2.61 2.04 3.63 1.34 1.36-.08-.07-.78zm24.88 4.79l-.36-2.24-1.96.72.87-3.11-2.8-1.32-1.29 1.05-2.49-1.18.98-1.51-1.88-.93-1.83 1.47 1.86-3.82 1.5-2.8.54-1.22-1.3-.2-2.43 1.55-1.74 2.53-2.9 6.92-2.35 2.56 1.22 1.14-1.75 1.47.43 1.23 5.44.13 3.01-.25 2.69 1.01-1.98 1.93 1.67.14 3.25-3.58.78.53-.61 3.37 1.84.77 1.27-.15 1.18-3.61-.86-2.6zm-21.19 4.76l-2.81 4.56-4.63.58-3.64-2.01-.92-3.07-.89-4.46 2.65-2.83-2.48-2.09-4.19.43-5.88 3.53-4.5 5.45-2.38.67 3.23-3.8 4.04-5.57 3.57-1.9 2.35-3.11 2.9-.3 4.21.03 6 .92 4.74-.71 3.53-3.62 4.62-1.59 2.01-1.58 2.04-1.71-.2-5.19-1.13-1.77-2.18-.63-1.11-4.05-1.8-1.55-4.47-1.26-2.52-2.82-3.73-2.83 1.13-3.2-3.1-6.26-3.65-6.89-2.18-4.98-1.86 2.61-2.68 6.05-4.06 2.97-2.03-3.16-2.56-.85-.93-6.99.08-4.8-5-.44-.85-2.27-3.45-3.44-2.61-2.04-2.32 1.58-2.88-.58-4.81-1.65-1.95 1.4.94 9.18 1.22 5.12-3.31 5.75 3.41 4.02 1.9 4.44.23 3.42-1.55 3.5-3.18 3.46-4.49 2.28 1.98 2.53 1.46 7.4-1.52 4.68-2.16 1.46-4.17-4.28-2.03-5.17-.87-4.76.46-4.19-3.05-.47-4.63-.28-2.97-2.08-3.51-1.37-2.01-2.38-2.8-1.94-5.21-2.23-3.92 1.02-1.31-3.95-1.26-4.99-4.12-.9.15-6.41 1.09-4.48 3.04-6.6 3.43-4.9 3.26-.77.19-4.05 2.21-2.68 4.01-.42 3.25-4.39.82-2.9 2.7-5.73.84-3.5 2.9 2.11 3.9-1.08 5.49-4.96.36-3.54-1.98-3.98 2.09-4.06-.17-3.87-3.76-3.95-4.14-1.19-3.98-.62-.15 8.71-2.04 6.56-2.93 5.3-2.71-4.95.84-5.61-3.35-5.02-3.75 6.09.01-7.99-5.21-1.63 2.49-4.01-3.81-9.59-2.84-3.91-3.7-1.44-3.32 6.43-.22 9.34 3.27 3.29 3 4.91-1.27 7.71-2.26-.2-1.78 5.88.02-7-4.34-2.58-2.49 1.33.32 4.67-4.09-.18-4.35 1.17-4.95-3.35-3.13.6-2.82-4.11-2.26-1.84-2.24.77-3.41.35-1.81 2.61 2.86 3.19-3.05 3.72-2.99-4.42-2.39 1.3-7.57.87-5.07-1.59 3.94-3.74-3.78-3.9-2.75.5-3.86-1.32-6.56-2.89-4.29-3.37-3.4-.47-1.06 2.36-3.44 1.31-.38-6.15-3.73 5.5-4.74-7.32-1.94-.89-.63 3.91-2.09 1.9-1.93-3.39-4.59 2.05-4.2 3.55-4.17-.98-3.4 2.5-2.46 3.28-2.92-.72-4.41-3.8-5.23-1.94-.02 27.65-.01 35.43 2.76.17 2.73 1.56 1.96 2.44 2.49 3.6 2.73-3.05 2.81-1.79 1.49 2.85L19.84 91l2.57 2.42 1.75 3.79 2.87 5.88 4.77 3.2.08 3.12-1.56 2.35.06 2.48 3.39 3.45.49 3.76 3.59 1.96-.4 2.79 1.56 3.96 5.08 1.82 2 1.89 5.43 4.23.38.01h77.61l.01-1.64.95-.02.5 2.35.87.72 1.96.26 2.86.67 2.72 1.3 2.27-.55 3.45 1.09 1.14-1.66 1.59-.66.62-1.03.63-.55 2.61.86 1.93.1.67.57.94 2.38 3.15.63-.49 1.18 1.11 1.21-.48 1.56 1.18.51-.59 1.37.75.13.53-.6.55.9 2.1.5 2.13.04 2.27.41 2.51.78.91 1.26 1.82 3.04-.9 1.3-2.28-.54-1.42-2.44.36 2.49-1.34 2.17.15 1.84-.23 1.07-1.81 1.27-1.32 2.09-.62 1.32 1.54.24 2.08-1.2 1.23-1.06.83-.17 1.54.38.75-.59 1.37-.48 2.44-.47-.25-1.15-.13.04-.86.2-1.12-.36.84-1.32.85-.46 1.98-.56 2.37-.53 1.24.73.78-.85.89-.54.6.29.03.06 2.87-2.73 1.27-.73 4.26-.03h5.17l.28-.98.9-.2 1.19-.62 1-1.82.86-3.15 2.14-3.1.93 1.08 1.88-.7 1.25 1.19v5.52l1.83 2.25 3.12-.48 4.49-.13-4.87 3.26.11 3.29 2.13.28 3.13-2.79 2.78-1.58 6.21-2.35 3.47-2.62-1.81-1.46-.29-2.92zM30.25 111.8l1.56-2.35-1.56 2.35zm-3.4 3.29l-2.69.38-1.32-.62-.17 1.52.52 2.07 1.42 1.46 1.04 2.13 1.69 2.1 1.12.01-2.44-3.7.83-5.35z"/><path d="M206.18 146.23l-1.25-1.19-1.88.7-.93-1.08-2.14 3.1-.86 3.15-1 1.82-1.19.62-.9.2-.28.98h-5.17l-4.26.03-1.27.73-2.87 2.73.29.54.17 1.51-2.1 1.27-2.3-.32-2.2-.14-1.33.44.25 1.15.05.37-2.42 2.27-2.11 1.09-1.44.51-1.66 1.03-2.03.5-1.4-.19-1.73-.77.96-1.45.62-1.32 1.32-2.09-.14-1.57-.5-2.24-1.04-.39-1.74 1.7-.56-.03-.14-.97 1.54-1.56.26-1.79-.23-1.79-2.08-1.55-2.38-.8-.39 1.52-.62.4-.5 1.95-.26-1.33-1.12.95-.7 1.32-.73 1.92-.14 1.64.93 2.38-.08 2.51-1.14 1.84-.57.52-.76.41-.95.02-.26-.25-.76-1.98-.02-.98.08-.94-.35-1.87.53-2.18.63-2.71 1.46-3.03-.42.01-2.06 2.54-.38-.46 1.1-1.42 1.67-2.57 1.91-.36 2.19-.8 2.21.42.09.02 2.47-.36-1.4-1.61-.75-.13-.86-.16-.59-1.14-2.75.36-2.49.9-1.97-1.55-1.59-.52.9-2.17-2.48 1.37-2.25 1.33-2.16 1.04-1.72-1.4-2.81.85.01-.6 1.9-1.73 1.99-1.65 2.86-1.37-3.45-1.09-2.27.55-2.72-1.3-2.86-.67-1.96-.26-.87-.72-.5-2.35-.95.02-.01 1.64H51.81l.95 3.47.45 3.41-.69 1.09-1.49-3.91-4.05-1.42-.34.82.82 1.94.89 3.53.51 5.42-.34 3.59-.34 3.54-1.1 3.61.9 2.9.1 3.2-.61 3.05 1.49 1.99.39 2.95 2.17 2.99 1.24 1.17-.1.82 2.34 4.85 2.72 3.45.34 1.87.71.55 2.6.33 1 .91 1.57.17.31.96 1.31.4 1.82 1.92.47 1.7 3.19-.25 3.56-.36-.26.65 4.23 1.6 6.4 2.31 5.58-.02h2.22l.01-1.35h4.86l1.02 1.16 1.43 1.03 1.67 1.43.93 1.69.7 1.77 1.45.97 2.33.96 1.77-2.53 2.29-.06 1.98 1.28 1.41 2.18.97 1.86 1.65 1.8.62 2.19.79 1.47 2.19.96 1.99.68 1.09-.09-.53-1.06-.14-1.5.03-2.16.65-1.42 1.53-1.51 2.79-1.37 2.55-2.37 2.36-.75 1.74-.23 2.04.74 2.45-.4 2.09 1.69 2.03.1 1.05-.61 1.04.47.53-.42-.6-.63.05-1.3-.5-.86 1.16-.5 2.14-.22 2.49.36 3.17-.41 1.76.8 1.36 1.5.5.16 2.83-1.46 1.09.49 2.19 2.68.79 1.75-.58 2.1.42 1.23 1.3 2.4 1.49 2.68 1.07.71.44 1.35 1.38.37.84-.39.7-1.89.12-1.21.09-2.1-1.33-3.65-.02-1.37-1.25-2.25-.94-2.75-.5-2.25.43-2.31 1.32-1.94 1.58-1.57 3.08-2.16.4-1.12 1.42-1.23 1.4-.22 1.84-1.98 2.9-1.01 1.78-2.53-.39-3.46-.29-1.21-.8-.24-.12-3.35-1.93-1.14 1.85.56-.6-2.26.54-1.55.33 2.97 1.43 1.36-.87 2.4.26.14 1.58-2.81.9-1.38-.04-1.35-.7-.64-.58-1.94.92.9.62.19.21.92 2.04-2.78.61-2.62-.83-.17.85-1.02-.08.45 1.79-.01 3.93-1.11-.83-.7-4.12.7 2.34-1.07 1.63-.18 1.22-.19 2.07-.65 1.35.07 1.89-.61.22-1.07-.84-.84.29 1.37-1.16-.09-.93-1.99.03-2.01.48-.86 1.48-2.28 2.96-1.15 2.88-1.34 2.99-1.9-.48-1.29-1.83-2.25-.03-5.56zM26.85 115.09l-2.69.38-1.32-.62-.17 1.52.52 2.07 1.42 1.46 1.04 2.13 1.69 2.1 1.12.01-2.44-3.7.83-5.35z"/></g></svg>